<?xml version="1.0" encoding="utf-8" standalone="no"?>
<!DOCTYPE svg PUBLIC "-//W3C//DTD SVG 1.1//EN"
  "http://www.w3.org/Graphics/SVG/1.1/DTD/svg11.dtd">
<svg xmlns:xlink="http://www.w3.org/1999/xlink" width="864pt" height="345.6pt" viewBox="0 0 864 345.6" xmlns="http://www.w3.org/2000/svg" version="1.1">
 <metadata>
  <rdf:RDF xmlns:dc="http://purl.org/dc/elements/1.1/" xmlns:cc="http://creativecommons.org/ns#" xmlns:rdf="http://www.w3.org/1999/02/22-rdf-syntax-ns#">
   <cc:Work>
    <dc:type rdf:resource="http://purl.org/dc/dcmitype/StillImage"/>
    <dc:date>2024-11-05T14:09:22.822356</dc:date>
    <dc:format>image/svg+xml</dc:format>
    <dc:creator>
     <cc:Agent>
      <dc:title>Matplotlib v3.8.0, https://matplotlib.org/</dc:title>
     </cc:Agent>
    </dc:creator>
   </cc:Work>
  </rdf:RDF>
 </metadata>
 <defs>
  <style type="text/css">*{stroke-linejoin: round; stroke-linecap: butt}</style>
 </defs>
 <g id="figure_1">
  <g id="patch_1">
   <path d="M 0 345.6 
L 864 345.6 
L 864 0 
L 0 0 
z
" style="fill: #ffffff"/>
  </g>
  <g id="axes_1">
   <g id="patch_2">
    <path d="M 76.214 287.8 
L 412.177091 287.8 
L 412.177091 31.92 
L 76.214 31.92 
z
" style="fill: #ffffff"/>
   </g>
   <g id="matplotlib.axis_1">
    <g id="xtick_1">
     <g id="line2d_1">
      <defs>
       <path id="m8adbf6bdd5" d="M 0 0 
L 0 3.5 
" style="stroke: #000000; stroke-width: 0.8"/>
      </defs>
      <g>
       <use xlink:href="#m8adbf6bdd5" x="76.214" y="287.8" style="stroke: #000000; stroke-width: 0.8"/>
      </g>
     </g>
     <g id="text_1">
      <!-- −20 -->
      <g transform="translate(59.33025 306.9575) scale(0.16 -0.16)">
       <defs>
        <path id="DejaVuSans-2212" d="M 678 2272 
L 4684 2272 
L 4684 1741 
L 678 1741 
L 678 2272 
z
" transform="scale(0.015625)"/>
        <path id="DejaVuSans-32" d="M 1228 531 
L 3431 531 
L 3431 0 
L 469 0 
L 469 531 
Q 828 903 1448 1529 
Q 2069 2156 2228 2338 
Q 2531 2678 2651 2914 
Q 2772 3150 2772 3378 
Q 2772 3750 2511 3984 
Q 2250 4219 1831 4219 
Q 1534 4219 1204 4116 
Q 875 4013 500 3803 
L 500 4441 
Q 881 4594 1212 4672 
Q 1544 4750 1819 4750 
Q 2544 4750 2975 4387 
Q 3406 4025 3406 3419 
Q 3406 3131 3298 2873 
Q 3191 2616 2906 2266 
Q 2828 2175 2409 1742 
Q 1991 1309 1228 531 
z
" transform="scale(0.015625)"/>
        <path id="DejaVuSans-30" d="M 2034 4250 
Q 1547 4250 1301 3770 
Q 1056 3291 1056 2328 
Q 1056 1369 1301 889 
Q 1547 409 2034 409 
Q 2525 409 2770 889 
Q 3016 1369 3016 2328 
Q 3016 3291 2770 3770 
Q 2525 4250 2034 4250 
z
M 2034 4750 
Q 2819 4750 3233 4129 
Q 3647 3509 3647 2328 
Q 3647 1150 3233 529 
Q 2819 -91 2034 -91 
Q 1250 -91 836 529 
Q 422 1150 422 2328 
Q 422 3509 836 4129 
Q 1250 4750 2034 4750 
z
" transform="scale(0.015625)"/>
       </defs>
       <use xlink:href="#DejaVuSans-2212"/>
       <use xlink:href="#DejaVuSans-32" x="83.789062"/>
       <use xlink:href="#DejaVuSans-30" x="147.412109"/>
      </g>
     </g>
    </g>
    <g id="xtick_2">
     <g id="line2d_2">
      <g>
       <use xlink:href="#m8adbf6bdd5" x="130.401595" y="287.8" style="stroke: #000000; stroke-width: 0.8"/>
      </g>
     </g>
     <g id="text_2">
      <!-- −15 -->
      <g transform="translate(113.517845 306.9575) scale(0.16 -0.16)">
       <defs>
        <path id="DejaVuSans-31" d="M 794 531 
L 1825 531 
L 1825 4091 
L 703 3866 
L 703 4441 
L 1819 4666 
L 2450 4666 
L 2450 531 
L 3481 531 
L 3481 0 
L 794 0 
L 794 531 
z
" transform="scale(0.015625)"/>
        <path id="DejaVuSans-35" d="M 691 4666 
L 3169 4666 
L 3169 4134 
L 1269 4134 
L 1269 2991 
Q 1406 3038 1543 3061 
Q 1681 3084 1819 3084 
Q 2600 3084 3056 2656 
Q 3513 2228 3513 1497 
Q 3513 744 3044 326 
Q 2575 -91 1722 -91 
Q 1428 -91 1123 -41 
Q 819 9 494 109 
L 494 744 
Q 775 591 1075 516 
Q 1375 441 1709 441 
Q 2250 441 2565 725 
Q 2881 1009 2881 1497 
Q 2881 1984 2565 2268 
Q 2250 2553 1709 2553 
Q 1456 2553 1204 2497 
Q 953 2441 691 2322 
L 691 4666 
z
" transform="scale(0.015625)"/>
       </defs>
       <use xlink:href="#DejaVuSans-2212"/>
       <use xlink:href="#DejaVuSans-31" x="83.789062"/>
       <use xlink:href="#DejaVuSans-35" x="147.412109"/>
      </g>
     </g>
    </g>
    <g id="xtick_3">
     <g id="line2d_3">
      <g>
       <use xlink:href="#m8adbf6bdd5" x="184.589191" y="287.8" style="stroke: #000000; stroke-width: 0.8"/>
      </g>
     </g>
     <g id="text_3">
      <!-- −10 -->
      <g transform="translate(167.705441 306.9575) scale(0.16 -0.16)">
       <use xlink:href="#DejaVuSans-2212"/>
       <use xlink:href="#DejaVuSans-31" x="83.789062"/>
       <use xlink:href="#DejaVuSans-30" x="147.412109"/>
      </g>
     </g>
    </g>
    <g id="xtick_4">
     <g id="line2d_4">
      <g>
       <use xlink:href="#m8adbf6bdd5" x="238.776786" y="287.8" style="stroke: #000000; stroke-width: 0.8"/>
      </g>
     </g>
     <g id="text_4">
      <!-- −5 -->
      <g transform="translate(226.983036 306.9575) scale(0.16 -0.16)">
       <use xlink:href="#DejaVuSans-2212"/>
       <use xlink:href="#DejaVuSans-35" x="83.789062"/>
      </g>
     </g>
    </g>
    <g id="xtick_5">
     <g id="line2d_5">
      <g>
       <use xlink:href="#m8adbf6bdd5" x="292.964381" y="287.8" style="stroke: #000000; stroke-width: 0.8"/>
      </g>
     </g>
     <g id="text_5">
      <!-- 0 -->
      <g transform="translate(287.874381 306.9575) scale(0.16 -0.16)">
       <use xlink:href="#DejaVuSans-30"/>
      </g>
     </g>
    </g>
    <g id="xtick_6">
     <g id="line2d_6">
      <g>
       <use xlink:href="#m8adbf6bdd5" x="347.151977" y="287.8" style="stroke: #000000; stroke-width: 0.8"/>
      </g>
     </g>
     <g id="text_6">
      <!-- 5 -->
      <g transform="translate(342.061977 306.9575) scale(0.16 -0.16)">
       <use xlink:href="#DejaVuSans-35"/>
      </g>
     </g>
    </g>
    <g id="xtick_7">
     <g id="line2d_7">
      <g>
       <use xlink:href="#m8adbf6bdd5" x="401.339572" y="287.8" style="stroke: #000000; stroke-width: 0.8"/>
      </g>
     </g>
     <g id="text_7">
      <!-- 10 -->
      <g transform="translate(391.159572 306.9575) scale(0.16 -0.16)">
       <use xlink:href="#DejaVuSans-31"/>
       <use xlink:href="#DejaVuSans-30" x="63.623047"/>
      </g>
     </g>
    </g>
    <g id="text_8">
     <!-- Real Frequency $\omega$ [eV] -->
     <g transform="translate(153.475545 326.445) scale(0.16 -0.16)">
      <defs>
       <path id="DejaVuSans-52" d="M 2841 2188 
Q 3044 2119 3236 1894 
Q 3428 1669 3622 1275 
L 4263 0 
L 3584 0 
L 2988 1197 
Q 2756 1666 2539 1819 
Q 2322 1972 1947 1972 
L 1259 1972 
L 1259 0 
L 628 0 
L 628 4666 
L 2053 4666 
Q 2853 4666 3247 4331 
Q 3641 3997 3641 3322 
Q 3641 2881 3436 2590 
Q 3231 2300 2841 2188 
z
M 1259 4147 
L 1259 2491 
L 2053 2491 
Q 2509 2491 2742 2702 
Q 2975 2913 2975 3322 
Q 2975 3731 2742 3939 
Q 2509 4147 2053 4147 
L 1259 4147 
z
" transform="scale(0.015625)"/>
       <path id="DejaVuSans-65" d="M 3597 1894 
L 3597 1613 
L 953 1613 
Q 991 1019 1311 708 
Q 1631 397 2203 397 
Q 2534 397 2845 478 
Q 3156 559 3463 722 
L 3463 178 
Q 3153 47 2828 -22 
Q 2503 -91 2169 -91 
Q 1331 -91 842 396 
Q 353 884 353 1716 
Q 353 2575 817 3079 
Q 1281 3584 2069 3584 
Q 2775 3584 3186 3129 
Q 3597 2675 3597 1894 
z
M 3022 2063 
Q 3016 2534 2758 2815 
Q 2500 3097 2075 3097 
Q 1594 3097 1305 2825 
Q 1016 2553 972 2059 
L 3022 2063 
z
" transform="scale(0.015625)"/>
       <path id="DejaVuSans-61" d="M 2194 1759 
Q 1497 1759 1228 1600 
Q 959 1441 959 1056 
Q 959 750 1161 570 
Q 1363 391 1709 391 
Q 2188 391 2477 730 
Q 2766 1069 2766 1631 
L 2766 1759 
L 2194 1759 
z
M 3341 1997 
L 3341 0 
L 2766 0 
L 2766 531 
Q 2569 213 2275 61 
Q 1981 -91 1556 -91 
Q 1019 -91 701 211 
Q 384 513 384 1019 
Q 384 1609 779 1909 
Q 1175 2209 1959 2209 
L 2766 2209 
L 2766 2266 
Q 2766 2663 2505 2880 
Q 2244 3097 1772 3097 
Q 1472 3097 1187 3025 
Q 903 2953 641 2809 
L 641 3341 
Q 956 3463 1253 3523 
Q 1550 3584 1831 3584 
Q 2591 3584 2966 3190 
Q 3341 2797 3341 1997 
z
" transform="scale(0.015625)"/>
       <path id="DejaVuSans-6c" d="M 603 4863 
L 1178 4863 
L 1178 0 
L 603 0 
L 603 4863 
z
" transform="scale(0.015625)"/>
       <path id="DejaVuSans-20" transform="scale(0.015625)"/>
       <path id="DejaVuSans-46" d="M 628 4666 
L 3309 4666 
L 3309 4134 
L 1259 4134 
L 1259 2759 
L 3109 2759 
L 3109 2228 
L 1259 2228 
L 1259 0 
L 628 0 
L 628 4666 
z
" transform="scale(0.015625)"/>
       <path id="DejaVuSans-72" d="M 2631 2963 
Q 2534 3019 2420 3045 
Q 2306 3072 2169 3072 
Q 1681 3072 1420 2755 
Q 1159 2438 1159 1844 
L 1159 0 
L 581 0 
L 581 3500 
L 1159 3500 
L 1159 2956 
Q 1341 3275 1631 3429 
Q 1922 3584 2338 3584 
Q 2397 3584 2469 3576 
Q 2541 3569 2628 3553 
L 2631 2963 
z
" transform="scale(0.015625)"/>
       <path id="DejaVuSans-71" d="M 947 1747 
Q 947 1113 1208 752 
Q 1469 391 1925 391 
Q 2381 391 2643 752 
Q 2906 1113 2906 1747 
Q 2906 2381 2643 2742 
Q 2381 3103 1925 3103 
Q 1469 3103 1208 2742 
Q 947 2381 947 1747 
z
M 2906 525 
Q 2725 213 2448 61 
Q 2172 -91 1784 -91 
Q 1150 -91 751 415 
Q 353 922 353 1747 
Q 353 2572 751 3078 
Q 1150 3584 1784 3584 
Q 2172 3584 2448 3432 
Q 2725 3281 2906 2969 
L 2906 3500 
L 3481 3500 
L 3481 -1331 
L 2906 -1331 
L 2906 525 
z
" transform="scale(0.015625)"/>
       <path id="DejaVuSans-75" d="M 544 1381 
L 544 3500 
L 1119 3500 
L 1119 1403 
Q 1119 906 1312 657 
Q 1506 409 1894 409 
Q 2359 409 2629 706 
Q 2900 1003 2900 1516 
L 2900 3500 
L 3475 3500 
L 3475 0 
L 2900 0 
L 2900 538 
Q 2691 219 2414 64 
Q 2138 -91 1772 -91 
Q 1169 -91 856 284 
Q 544 659 544 1381 
z
M 1991 3584 
L 1991 3584 
z
" transform="scale(0.015625)"/>
       <path id="DejaVuSans-6e" d="M 3513 2113 
L 3513 0 
L 2938 0 
L 2938 2094 
Q 2938 2591 2744 2837 
Q 2550 3084 2163 3084 
Q 1697 3084 1428 2787 
Q 1159 2491 1159 1978 
L 1159 0 
L 581 0 
L 581 3500 
L 1159 3500 
L 1159 2956 
Q 1366 3272 1645 3428 
Q 1925 3584 2291 3584 
Q 2894 3584 3203 3211 
Q 3513 2838 3513 2113 
z
" transform="scale(0.015625)"/>
       <path id="DejaVuSans-63" d="M 3122 3366 
L 3122 2828 
Q 2878 2963 2633 3030 
Q 2388 3097 2138 3097 
Q 1578 3097 1268 2742 
Q 959 2388 959 1747 
Q 959 1106 1268 751 
Q 1578 397 2138 397 
Q 2388 397 2633 464 
Q 2878 531 3122 666 
L 3122 134 
Q 2881 22 2623 -34 
Q 2366 -91 2075 -91 
Q 1284 -91 818 406 
Q 353 903 353 1747 
Q 353 2603 823 3093 
Q 1294 3584 2113 3584 
Q 2378 3584 2631 3529 
Q 2884 3475 3122 3366 
z
" transform="scale(0.015625)"/>
       <path id="DejaVuSans-79" d="M 2059 -325 
Q 1816 -950 1584 -1140 
Q 1353 -1331 966 -1331 
L 506 -1331 
L 506 -850 
L 844 -850 
Q 1081 -850 1212 -737 
Q 1344 -625 1503 -206 
L 1606 56 
L 191 3500 
L 800 3500 
L 1894 763 
L 2988 3500 
L 3597 3500 
L 2059 -325 
z
" transform="scale(0.015625)"/>
       <path id="DejaVuSans-Oblique-3c9" d="M 1369 -91 
Q 72 -91 434 1766 
Q 575 2500 1256 3500 
L 1875 3500 
Q 1231 2500 1088 1750 
Q 819 397 1519 397 
Q 2166 397 2478 2078 
L 3009 2078 
Q 2669 388 3316 397 
Q 4013 403 4275 1750 
Q 4419 2500 4169 3500 
L 4788 3500 
Q 5075 2500 4934 1766 
Q 4578 -94 3278 -91 
Q 2428 -88 2503 844 
Q 2194 -91 1369 -91 
z
" transform="scale(0.015625)"/>
       <path id="DejaVuSans-5b" d="M 550 4863 
L 1875 4863 
L 1875 4416 
L 1125 4416 
L 1125 -397 
L 1875 -397 
L 1875 -844 
L 550 -844 
L 550 4863 
z
" transform="scale(0.015625)"/>
       <path id="DejaVuSans-56" d="M 1831 0 
L 50 4666 
L 709 4666 
L 2188 738 
L 3669 4666 
L 4325 4666 
L 2547 0 
L 1831 0 
z
" transform="scale(0.015625)"/>
       <path id="DejaVuSans-5d" d="M 1947 4863 
L 1947 -844 
L 622 -844 
L 622 -397 
L 1369 -397 
L 1369 4416 
L 622 4416 
L 622 4863 
L 1947 4863 
z
" transform="scale(0.015625)"/>
      </defs>
      <use xlink:href="#DejaVuSans-52" transform="translate(0 0.015625)"/>
      <use xlink:href="#DejaVuSans-65" transform="translate(69.482422 0.015625)"/>
      <use xlink:href="#DejaVuSans-61" transform="translate(131.005859 0.015625)"/>
      <use xlink:href="#DejaVuSans-6c" transform="translate(192.285156 0.015625)"/>
      <use xlink:href="#DejaVuSans-20" transform="translate(220.068359 0.015625)"/>
      <use xlink:href="#DejaVuSans-46" transform="translate(251.855469 0.015625)"/>
      <use xlink:href="#DejaVuSans-72" transform="translate(309.375 0.015625)"/>
      <use xlink:href="#DejaVuSans-65" transform="translate(350.488281 0.015625)"/>
      <use xlink:href="#DejaVuSans-71" transform="translate(412.011719 0.015625)"/>
      <use xlink:href="#DejaVuSans-75" transform="translate(475.488281 0.015625)"/>
      <use xlink:href="#DejaVuSans-65" transform="translate(538.867188 0.015625)"/>
      <use xlink:href="#DejaVuSans-6e" transform="translate(600.390625 0.015625)"/>
      <use xlink:href="#DejaVuSans-63" transform="translate(663.769531 0.015625)"/>
      <use xlink:href="#DejaVuSans-79" transform="translate(718.75 0.015625)"/>
      <use xlink:href="#DejaVuSans-20" transform="translate(777.929688 0.015625)"/>
      <use xlink:href="#DejaVuSans-Oblique-3c9" transform="translate(809.716797 0.015625)"/>
      <use xlink:href="#DejaVuSans-20" transform="translate(893.457031 0.015625)"/>
      <use xlink:href="#DejaVuSans-5b" transform="translate(925.244141 0.015625)"/>
      <use xlink:href="#DejaVuSans-65" transform="translate(964.257812 0.015625)"/>
      <use xlink:href="#DejaVuSans-56" transform="translate(1025.78125 0.015625)"/>
      <use xlink:href="#DejaVuSans-5d" transform="translate(1094.189453 0.015625)"/>
     </g>
    </g>
   </g>
   <g id="matplotlib.axis_2">
    <g id="ytick_1">
     <g id="line2d_8">
      <defs>
       <path id="me1a1780dc8" d="M 0 0 
L -3.5 0 
" style="stroke: #000000; stroke-width: 0.8"/>
      </defs>
      <g>
       <use xlink:href="#me1a1780dc8" x="76.214" y="246.043524" style="stroke: #000000; stroke-width: 0.8"/>
      </g>
     </g>
     <g id="text_9">
      <!-- −20 -->
      <g transform="translate(35.4465 252.122274) scale(0.16 -0.16)">
       <use xlink:href="#DejaVuSans-2212"/>
       <use xlink:href="#DejaVuSans-32" x="83.789062"/>
       <use xlink:href="#DejaVuSans-30" x="147.412109"/>
      </g>
     </g>
    </g>
    <g id="ytick_2">
     <g id="line2d_9">
      <g>
       <use xlink:href="#me1a1780dc8" x="76.214" y="200.26717" style="stroke: #000000; stroke-width: 0.8"/>
      </g>
     </g>
     <g id="text_10">
      <!-- −10 -->
      <g transform="translate(35.4465 206.34592) scale(0.16 -0.16)">
       <use xlink:href="#DejaVuSans-2212"/>
       <use xlink:href="#DejaVuSans-31" x="83.789062"/>
       <use xlink:href="#DejaVuSans-30" x="147.412109"/>
      </g>
     </g>
    </g>
    <g id="ytick_3">
     <g id="line2d_10">
      <g>
       <use xlink:href="#me1a1780dc8" x="76.214" y="154.490816" style="stroke: #000000; stroke-width: 0.8"/>
      </g>
     </g>
     <g id="text_11">
      <!-- 0 -->
      <g transform="translate(59.034 160.569566) scale(0.16 -0.16)">
       <use xlink:href="#DejaVuSans-30"/>
      </g>
     </g>
    </g>
    <g id="ytick_4">
     <g id="line2d_11">
      <g>
       <use xlink:href="#me1a1780dc8" x="76.214" y="108.714462" style="stroke: #000000; stroke-width: 0.8"/>
      </g>
     </g>
     <g id="text_12">
      <!-- 10 -->
      <g transform="translate(48.854 114.793212) scale(0.16 -0.16)">
       <use xlink:href="#DejaVuSans-31"/>
       <use xlink:href="#DejaVuSans-30" x="63.623047"/>
      </g>
     </g>
    </g>
    <g id="ytick_5">
     <g id="line2d_12">
      <g>
       <use xlink:href="#me1a1780dc8" x="76.214" y="62.938107" style="stroke: #000000; stroke-width: 0.8"/>
      </g>
     </g>
     <g id="text_13">
      <!-- 20 -->
      <g transform="translate(48.854 69.016857) scale(0.16 -0.16)">
       <use xlink:href="#DejaVuSans-32"/>
       <use xlink:href="#DejaVuSans-30" x="63.623047"/>
      </g>
     </g>
    </g>
    <g id="text_14">
     <!-- $\operatorname{Re}(\Sigma_{HOMO}^c(\omega))$ [eV] -->
     <g transform="translate(26.8065 231.94) rotate(-90) scale(0.16 -0.16)">
      <defs>
       <path id="DejaVuSans-28" d="M 1984 4856 
Q 1566 4138 1362 3434 
Q 1159 2731 1159 2009 
Q 1159 1288 1364 580 
Q 1569 -128 1984 -844 
L 1484 -844 
Q 1016 -109 783 600 
Q 550 1309 550 2009 
Q 550 2706 781 3412 
Q 1013 4119 1484 4856 
L 1984 4856 
z
" transform="scale(0.015625)"/>
       <path id="DejaVuSans-3a3" d="M 1353 531 
L 3634 531 
L 3634 0 
L 628 0 
L 628 531 
L 2125 2481 
L 628 4134 
L 628 4666 
L 3578 4666 
L 3578 4134 
L 1353 4134 
L 2850 2494 
L 1353 531 
z
" transform="scale(0.015625)"/>
       <path id="DejaVuSans-Oblique-63" d="M 3431 3366 
L 3316 2797 
Q 3109 2947 2876 3022 
Q 2644 3097 2394 3097 
Q 2119 3097 1870 3000 
Q 1622 2903 1453 2725 
Q 1184 2453 1037 2087 
Q 891 1722 891 1331 
Q 891 859 1127 628 
Q 1363 397 1844 397 
Q 2081 397 2348 469 
Q 2616 541 2906 684 
L 2797 116 
Q 2547 13 2283 -39 
Q 2019 -91 1741 -91 
Q 1044 -91 669 257 
Q 294 606 294 1253 
Q 294 1797 489 2255 
Q 684 2713 1069 3078 
Q 1331 3328 1684 3456 
Q 2038 3584 2456 3584 
Q 2700 3584 2940 3529 
Q 3181 3475 3431 3366 
z
" transform="scale(0.015625)"/>
       <path id="DejaVuSans-Oblique-48" d="M 1081 4666 
L 1716 4666 
L 1344 2753 
L 3634 2753 
L 4006 4666 
L 4641 4666 
L 3731 0 
L 3097 0 
L 3531 2222 
L 1241 2222 
L 806 0 
L 172 0 
L 1081 4666 
z
" transform="scale(0.015625)"/>
       <path id="DejaVuSans-Oblique-4f" d="M 2919 4238 
Q 2400 4238 2003 3986 
Q 1606 3734 1313 3219 
Q 1125 2891 1026 2522 
Q 928 2153 928 1778 
Q 928 1128 1239 775 
Q 1550 422 2119 422 
Q 2631 422 3032 676 
Q 3434 931 3719 1434 
Q 3909 1772 4009 2142 
Q 4109 2513 4109 2881 
Q 4109 3528 3796 3883 
Q 3484 4238 2919 4238 
z
M 2100 -91 
Q 1241 -91 748 418 
Q 256 928 256 1813 
Q 256 2319 448 2847 
Q 641 3375 978 3788 
Q 1375 4272 1862 4511 
Q 2350 4750 2938 4750 
Q 3794 4750 4287 4245 
Q 4781 3741 4781 2869 
Q 4781 2331 4593 1812 
Q 4406 1294 4056 872 
Q 3656 384 3173 146 
Q 2691 -91 2100 -91 
z
" transform="scale(0.015625)"/>
       <path id="DejaVuSans-Oblique-4d" d="M 1081 4666 
L 2028 4666 
L 2572 1522 
L 4378 4666 
L 5350 4666 
L 4441 0 
L 3828 0 
L 4622 4091 
L 2791 897 
L 2175 897 
L 1581 4103 
L 788 0 
L 172 0 
L 1081 4666 
z
" transform="scale(0.015625)"/>
       <path id="DejaVuSans-29" d="M 513 4856 
L 1013 4856 
Q 1481 4119 1714 3412 
Q 1947 2706 1947 2009 
Q 1947 1309 1714 600 
Q 1481 -109 1013 -844 
L 513 -844 
Q 928 -128 1133 580 
Q 1338 1288 1338 2009 
Q 1338 2731 1133 3434 
Q 928 4138 513 4856 
z
" transform="scale(0.015625)"/>
      </defs>
      <use xlink:href="#DejaVuSans-52" transform="translate(0 0.51875)"/>
      <use xlink:href="#DejaVuSans-65" transform="translate(69.482422 0.51875)"/>
      <use xlink:href="#DejaVuSans-28" transform="translate(131.005859 0.51875)"/>
      <use xlink:href="#DejaVuSans-3a3" transform="translate(170.019531 0.51875)"/>
      <use xlink:href="#DejaVuSans-Oblique-63" transform="translate(234.160156 38.8) scale(0.7)"/>
      <use xlink:href="#DejaVuSans-Oblique-48" transform="translate(234.160156 -26.825) scale(0.7)"/>
      <use xlink:href="#DejaVuSans-Oblique-4f" transform="translate(286.796875 -26.825) scale(0.7)"/>
      <use xlink:href="#DejaVuSans-Oblique-4d" transform="translate(341.894531 -26.825) scale(0.7)"/>
      <use xlink:href="#DejaVuSans-Oblique-4f" transform="translate(402.290039 -26.825) scale(0.7)"/>
      <use xlink:href="#DejaVuSans-28" transform="translate(460.12207 0.51875)"/>
      <use xlink:href="#DejaVuSans-Oblique-3c9" transform="translate(499.135742 0.51875)"/>
      <use xlink:href="#DejaVuSans-29" transform="translate(582.875977 0.51875)"/>
      <use xlink:href="#DejaVuSans-29" transform="translate(621.889648 0.51875)"/>
      <use xlink:href="#DejaVuSans-20" transform="translate(660.90332 0.51875)"/>
      <use xlink:href="#DejaVuSans-5b" transform="translate(692.69043 0.51875)"/>
      <use xlink:href="#DejaVuSans-65" transform="translate(731.704102 0.51875)"/>
      <use xlink:href="#DejaVuSans-56" transform="translate(793.227539 0.51875)"/>
      <use xlink:href="#DejaVuSans-5d" transform="translate(861.635742 0.51875)"/>
     </g>
    </g>
   </g>
   <g id="line2d_13">
    <path d="M 76.105625 152.891165 
L 76.755876 154.370274 
L 77.406127 156.471553 
L 78.273129 160.045363 
L 78.381504 160.002395 
L 78.489879 159.462261 
L 78.706629 155.981193 
L 79.248505 141.883728 
L 79.465256 140.89417 
L 79.573631 141.057623 
L 80.007132 142.922135 
L 80.657383 145.548451 
L 81.416009 147.632029 
L 81.957885 148.67551 
L 82.283011 148.935744 
L 82.933262 149.033637 
L 83.691888 149.92278 
L 86.076142 152.273848 
L 89.110648 155.181246 
L 90.1944 156.539159 
L 91.278151 158.288019 
L 92.578654 160.837146 
L 92.687029 160.757511 
L 92.903779 159.899814 
L 93.662406 154.533129 
L 94.312657 153.492145 
L 94.529407 153.733721 
L 98.97279 163.653705 
L 99.839792 166.256678 
L 101.140294 170.406819 
L 101.465419 170.024776 
L 101.573795 170.099879 
L 101.790545 170.795115 
L 102.332421 174.076615 
L 102.874297 178.241109 
L 103.416173 184.439621 
L 103.958049 193.106137 
L 104.6083 204.405532 
L 104.716675 204.122725 
L 104.82505 201.657461 
L 105.041801 186.273671 
L 105.583677 123.497502 
L 105.800427 118.655192 
L 105.908802 119.241884 
L 106.233928 125.087104 
L 106.992554 139.304207 
L 107.75118 149.094602 
L 109.051683 162.109855 
L 110.027059 172.789219 
L 110.677311 182.22235 
L 111.219187 192.957243 
L 111.761063 208.159101 
L 112.736439 239.518572 
L 112.844814 235.486938 
L 113.061565 207.002535 
L 113.820191 44.761338 
L 113.928566 43.829937 
L 114.145317 49.126163 
L 115.229069 86.803782 
L 115.87932 99.743574 
L 116.529571 108.337561 
L 117.288197 115.250718 
L 118.046824 120.180813 
L 118.913825 124.337611 
L 119.780827 127.496414 
L 120.756203 130.264591 
L 121.839955 132.695324 
L 123.032082 134.841774 
L 124.44096 136.912769 
L 126.283338 139.181466 
L 128.884343 142.349653 
L 129.751344 143.831245 
L 130.401595 145.408711 
L 130.943471 146.840281 
L 131.051846 146.920131 
L 131.160222 146.769368 
L 131.376972 145.263119 
L 132.027223 136.649724 
L 132.135598 136.444032 
L 132.243974 136.4876 
L 132.569099 137.239819 
L 133.327725 139.136393 
L 134.086352 140.37873 
L 134.953353 141.344108 
L 136.037105 142.214626 
L 137.554358 143.123199 
L 139.505111 144.02152 
L 142.106116 144.968795 
L 145.574122 145.980124 
L 149.90913 147.002906 
L 155.436264 148.066618 
L 162.263901 149.146098 
L 170.933917 150.281334 
L 181.879811 151.479586 
L 195.968586 152.787267 
L 214.825869 154.301557 
L 245.170922 156.485332 
L 281.910112 159.175474 
L 298.274766 160.594507 
L 309.762536 161.803551 
L 318.215801 162.907854 
L 324.609937 163.959112 
L 329.48682 164.976519 
L 333.171577 165.956553 
L 335.989332 166.927407 
L 337.83171 167.787197 
L 339.023837 168.593371 
L 339.565713 168.877476 
L 339.782464 168.715591 
L 340.32434 167.854784 
L 340.54109 167.872753 
L 341.082966 168.300234 
L 345.634724 172.480287 
L 346.718476 174.007461 
L 347.585477 175.623436 
L 348.344104 177.531842 
L 348.994355 179.802937 
L 349.536231 182.460696 
L 350.078107 186.202989 
L 350.619983 190.305181 
L 350.728358 190.522763 
L 350.836733 190.060541 
L 351.053483 185.554612 
L 351.81211 157.112037 
L 351.920485 157.088389 
L 352.137235 158.351683 
L 353.329362 167.470506 
L 354.196364 171.954037 
L 356.472243 183.023993 
L 357.230869 188.111118 
L 357.88112 193.858825 
L 358.531372 201.77572 
L 359.073248 211.136678 
L 359.615123 224.675612 
L 360.156999 244.255111 
L 360.5905 259.970917 
L 360.698875 260.760203 
L 360.807251 257.944495 
L 361.024001 233.186342 
L 361.782627 61.792214 
L 361.891002 59.632303 
L 361.999378 60.79698 
L 362.324503 72.267901 
L 363.08313 99.061548 
L 363.733381 113.266487 
L 364.383632 122.509096 
L 365.033883 128.904303 
L 365.792509 134.227554 
L 366.551136 138.12322 
L 367.418137 141.468936 
L 368.393514 144.316636 
L 369.368891 146.521188 
L 370.452643 148.459442 
L 371.64477 150.160845 
L 373.053647 151.768976 
L 374.5709 153.16244 
L 376.304903 154.457904 
L 378.364031 155.713407 
L 380.856661 156.958107 
L 383.999541 158.258884 
L 388.442924 159.880778 
L 389.418301 159.727363 
L 392.886307 160.905101 
L 400.580946 163.078607 
L 402.098198 163.389065 
L 405.782955 164.816214 
L 407.191832 165.613793 
L 407.625333 165.767284 
L 407.842083 165.608558 
L 408.383959 164.872484 
L 408.709085 164.945661 
L 411.418465 166.755861 
L 412.285466 167.40008 
L 412.285466 167.40008 
" clip-path="url(#p780fc6b725)" style="fill: none; stroke: #000000; stroke-width: 3; stroke-linecap: square"/>
   </g>
   <g id="line2d_14">
    <path d="M 76.16578 149.73022 
L 81.724719 151.486366 
L 85.941845 153.050576 
L 89.200533 154.487691 
L 91.884158 155.902429 
L 94.184409 157.361092 
L 96.101284 158.826101 
L 97.826472 160.418727 
L 99.359972 162.138688 
L 100.701785 163.969046 
L 101.85191 165.868058 
L 103.002035 168.181836 
L 104.15216 171.065338 
L 105.110598 174.066677 
L 106.069036 177.810466 
L 107.027473 182.536937 
L 107.985911 188.448482 
L 109.519411 198.340938 
L 109.711099 198.844826 
L 109.902786 198.833459 
L 110.094474 198.098202 
L 110.286161 196.379771 
L 110.669537 188.770898 
L 111.052912 173.803392 
L 111.819662 126.807092 
L 112.394724 99.397969 
L 112.778099 91.30912 
L 112.969787 89.728622 
L 113.161474 89.318081 
L 113.353162 89.758246 
L 113.736537 92.206191 
L 116.420163 114.495624 
L 117.3786 119.598986 
L 118.337038 123.55417 
L 119.295476 126.685823 
L 120.445601 129.67038 
L 121.595726 132.053571 
L 122.937539 134.298933 
L 124.279351 136.136123 
L 125.812852 137.889267 
L 127.729727 139.749963 
L 130.988415 142.818294 
L 131.946853 144.0798 
L 132.521915 144.792033 
L 132.713603 144.706923 
L 132.90529 144.029161 
L 133.288666 139.659516 
L 133.480353 137.538493 
L 133.672041 136.898131 
L 133.863728 137.240007 
L 134.630478 139.681513 
L 135.205541 140.809152 
L 135.972291 141.771557 
L 136.930729 142.581263 
L 138.272541 143.393075 
L 140.189417 144.260699 
L 142.873042 145.20283 
L 146.323418 146.169939 
L 150.923919 147.214007 
L 156.674545 148.277831 
L 163.958671 149.384829 
L 172.967985 150.520143 
L 184.469237 151.735956 
L 199.420865 153.08036 
L 219.739743 154.668923 
L 259.61075 157.505117 
L 285.488567 159.465951 
L 300.631883 160.82375 
L 311.366384 161.995652 
L 319.417261 163.088409 
L 325.551262 164.138559 
L 330.151763 165.13679 
L 333.793826 166.140984 
L 336.669139 167.155514 
L 338.969389 168.204647 
L 340.694577 169.227476 
L 342.03639 170.258909 
L 343.186515 171.405184 
L 344.528328 173.117434 
L 345.295078 173.975817 
L 345.678453 174.088238 
L 346.061828 173.799835 
L 346.445203 173.104465 
L 347.211953 171.489661 
L 347.595328 171.060626 
L 347.978703 170.943399 
L 348.362079 171.063269 
L 348.937141 171.526788 
L 349.895579 172.706091 
L 351.045704 174.511748 
L 352.195829 176.735448 
L 353.154267 179.030309 
L 354.112705 181.92294 
L 354.879455 184.872913 
L 355.646205 188.669876 
L 356.412955 193.762723 
L 356.988018 198.898386 
L 357.56308 205.803818 
L 358.138143 215.523247 
L 358.713205 229.933736 
L 359.288268 251.920752 
L 359.863331 276.169091 
L 360.055018 272.415103 
L 360.246706 245.660685 
L 360.821768 61.222443 
L 361.013456 43.550909 
L 361.205143 44.651204 
L 362.546956 99.370562 
L 363.122019 111.728352 
L 363.697081 120.206404 
L 364.463831 128.006016 
L 365.230581 133.433534 
L 365.997332 137.423191 
L 366.955769 141.136929 
L 367.914207 143.932759 
L 368.872645 146.118913 
L 370.02277 148.192494 
L 371.172895 149.84724 
L 372.514708 151.407617 
L 374.048208 152.847256 
L 375.773396 154.160794 
L 377.881959 155.463045 
L 380.373897 156.711371 
L 383.24921 157.893584 
L 386.891273 159.139054 
L 391.683461 160.5274 
L 399.926025 162.639892 
L 408.360277 164.875153 
L 412.194027 166.05763 
L 412.194027 166.05763 
" clip-path="url(#p780fc6b725)" style="fill: none; stroke: #1f77b4; stroke-width: 2; stroke-linecap: square"/>
   </g>
   <g id="line2d_15">
    <path d="M 76.16578 149.688163 
L 81.533031 151.395553 
L 85.750157 152.964028 
L 89.008845 154.402748 
L 91.692471 155.817247 
L 93.992721 157.274161 
L 95.909596 158.736254 
L 97.634784 160.324792 
L 99.168285 162.039713 
L 100.510097 163.864488 
L 101.660222 165.758015 
L 102.810348 168.066355 
L 103.960473 170.946556 
L 104.918911 173.950929 
L 105.877348 177.712591 
L 106.835786 182.4964 
L 107.794224 188.575194 
L 109.519411 200.505439 
L 109.711099 200.917671 
L 109.902786 200.688776 
L 110.094474 199.558086 
L 110.286161 197.206198 
L 110.669537 187.40859 
L 111.052912 169.119751 
L 112.203037 99.673343 
L 112.586412 90.285113 
L 112.778099 88.389324 
L 112.969787 87.82322 
L 113.161474 88.218792 
L 113.54485 90.762859 
L 116.036787 112.847096 
L 116.995225 118.385577 
L 117.953663 122.637699 
L 118.912101 125.976078 
L 120.062226 129.133246 
L 121.212351 131.637101 
L 122.554164 133.982587 
L 123.895976 135.892466 
L 125.429477 137.707802 
L 127.346352 139.625898 
L 131.563478 143.404687 
L 131.755165 143.432214 
L 131.946853 143.335817 
L 132.13854 143.044495 
L 132.521915 141.609873 
L 133.096978 138.791436 
L 133.288666 138.491241 
L 133.480353 138.524448 
L 133.863728 139.081573 
L 134.822166 140.680342 
L 135.588916 141.57441 
L 136.547354 142.382863 
L 137.889166 143.216359 
L 139.806042 144.112514 
L 142.29798 145.020102 
L 145.748355 146.022041 
L 150.157169 147.05415 
L 155.716107 148.114422 
L 162.616858 149.196192 
L 171.434485 150.340657 
L 182.552362 151.546854 
L 196.928927 152.869641 
L 216.289368 154.411825 
L 248.492873 156.718588 
L 282.038192 159.18581 
L 298.331632 160.600144 
L 309.832884 161.812224 
L 318.267136 162.916163 
L 324.592824 163.957213 
L 329.385013 164.953742 
L 333.218763 165.96684 
L 336.285764 167.007925 
L 338.586014 168.013881 
L 340.50289 169.099626 
L 342.03639 170.230408 
L 343.378203 171.486179 
L 345.10339 173.115387 
L 345.678453 173.276627 
L 346.061828 173.170587 
L 346.828578 172.605432 
L 347.595328 172.138918 
L 348.170391 172.108187 
L 348.745454 172.347158 
L 349.512204 172.980751 
L 350.470641 174.133219 
L 351.429079 175.616337 
L 352.387517 177.453782 
L 353.345954 179.745216 
L 354.304392 182.674887 
L 355.071142 185.685005 
L 355.837892 189.57221 
L 356.604642 194.784916 
L 357.179705 200.017158 
L 357.754768 206.975274 
L 358.32983 216.519587 
L 358.904893 229.768771 
L 359.671643 250.078519 
L 359.863331 250.631035 
L 360.055018 243.629701 
L 360.246706 223.502327 
L 361.013456 77.176288 
L 361.205143 68.004547 
L 361.396831 67.897382 
L 361.780206 77.956774 
L 362.546956 100.108184 
L 363.122019 111.636533 
L 363.888769 122.08627 
L 364.655519 129.134657 
L 365.422269 134.164218 
L 366.189019 137.922457 
L 367.147457 141.464538 
L 368.105894 144.157397 
L 369.25602 146.649444 
L 370.406145 148.594999 
L 371.747958 150.394819 
L 373.08977 151.841436 
L 374.623271 153.191047 
L 376.540146 154.559144 
L 378.648709 155.781608 
L 381.140647 156.968247 
L 384.207647 158.174857 
L 388.041398 159.435794 
L 393.408649 160.945616 
L 410.277152 165.521464 
L 412.194027 166.165734 
L 412.194027 166.165734 
" clip-path="url(#p780fc6b725)" style="fill: none; stroke-dasharray: 7.4,3.2; stroke-dashoffset: 0; stroke: #ff7f0e; stroke-width: 2"/>
   </g>
   <g id="line2d_16">
    <path d="M 76.16578 149.598692 
L 81.533031 151.299579 
L 85.750157 152.864465 
L 89.008845 154.301737 
L 91.692471 155.716784 
L 93.992721 157.17679 
L 95.909596 158.645171 
L 97.634784 160.244925 
L 99.168285 161.97805 
L 100.510097 163.830354 
L 101.660222 165.762754 
L 102.810348 168.134928 
L 103.768785 170.573133 
L 104.727223 173.592492 
L 105.685661 177.423142 
L 106.452411 181.29973 
L 107.219161 186.163299 
L 107.985911 192.310508 
L 108.944349 201.942801 
L 109.711099 209.223231 
L 109.902786 210.064544 
L 110.094474 209.940593 
L 110.286161 208.355082 
L 110.477849 204.672854 
L 110.861224 188.220843 
L 111.244599 157.684816 
L 112.011349 92.461521 
L 112.394724 79.308536 
L 112.586412 77.263213 
L 112.778099 77.187095 
L 112.969787 78.410643 
L 113.54485 85.570439 
L 114.694975 100.671272 
L 115.461725 108.219249 
L 116.228475 114.017338 
L 117.186913 119.509003 
L 118.14535 123.660892 
L 119.103788 126.900621 
L 120.253913 129.96071 
L 121.404038 132.394056 
L 122.745851 134.689724 
L 124.279351 136.83184 
L 126.196227 139.080385 
L 128.879852 142.172789 
L 129.646602 143.378073 
L 130.221665 144.63334 
L 130.796728 146.481523 
L 131.180103 147.664761 
L 131.37179 146.948629 
L 131.563478 142.992674 
L 131.946853 132.770917 
L 132.13854 132.991008 
L 132.90529 137.414729 
L 133.480353 139.133563 
L 134.055416 140.199384 
L 134.822166 141.161022 
L 135.780603 142.00993 
L 137.122416 142.884176 
L 139.039292 143.825672 
L 141.53123 144.777181 
L 144.789918 145.769536 
L 149.007043 146.805873 
L 154.182607 147.842577 
L 160.699983 148.91574 
L 168.942547 150.03797 
L 179.293674 151.214083 
L 192.711801 152.502142 
L 210.347054 153.958671 
L 236.799934 155.896685 
L 283.380005 159.293788 
L 299.29007 160.692375 
L 310.407947 161.880256 
L 318.650511 162.97288 
L 324.976199 164.028949 
L 329.768388 165.044778 
L 333.410451 166.025263 
L 336.285764 167.009603 
L 338.586014 168.01771 
L 340.50289 169.106674 
L 342.03639 170.238324 
L 343.56989 171.668833 
L 344.911703 172.860732 
L 345.486766 173.062216 
L 346.061828 172.94193 
L 347.595328 172.184769 
L 348.170391 172.241471 
L 348.745454 172.526721 
L 349.512204 173.182317 
L 350.470641 174.335763 
L 351.429079 175.813081 
L 352.387517 177.646282 
L 353.345954 179.937229 
L 354.304392 182.870221 
L 355.071142 185.884675 
L 355.837892 189.774776 
L 356.604642 194.980494 
L 357.179705 200.186303 
L 357.754768 207.066233 
L 358.32983 216.388186 
L 359.09658 233.829009 
L 359.671643 245.676221 
L 359.863331 244.306669 
L 360.055018 235.280494 
L 360.246706 214.275351 
L 361.013456 83.041131 
L 361.205143 74.041554 
L 361.396831 73.07762 
L 361.780206 81.161079 
L 362.738644 105.34052 
L 363.505394 117.818885 
L 364.272144 126.122049 
L 365.038894 131.93818 
L 365.805644 136.212377 
L 366.764082 140.179206 
L 367.722519 143.152958 
L 368.680957 145.46828 
L 369.831082 147.654772 
L 370.981208 149.392032 
L 372.32302 151.023407 
L 373.856521 152.522215 
L 375.581708 153.88408 
L 377.498584 155.117793 
L 379.798834 156.33138 
L 382.674147 157.574205 
L 386.124523 158.80762 
L 390.725023 160.194061 
L 398.00915 162.117287 
L 407.210151 164.585671 
L 411.810652 166.057232 
L 412.194027 166.193257 
L 412.194027 166.193257 
" clip-path="url(#p780fc6b725)" style="fill: none; stroke-dasharray: 2,3.3; stroke-dashoffset: 0; stroke: #2ca02c; stroke-width: 2"/>
   </g>
   <g id="patch_3">
    <path d="M 76.214 287.8 
L 76.214 31.92 
" style="fill: none; stroke: #000000; stroke-width: 0.8; stroke-linejoin: miter; stroke-linecap: square"/>
   </g>
   <g id="patch_4">
    <path d="M 412.177091 287.8 
L 412.177091 31.92 
" style="fill: none; stroke: #000000; stroke-width: 0.8; stroke-linejoin: miter; stroke-linecap: square"/>
   </g>
   <g id="patch_5">
    <path d="M 76.214 287.8 
L 412.177091 287.8 
" style="fill: none; stroke: #000000; stroke-width: 0.8; stroke-linejoin: miter; stroke-linecap: square"/>
   </g>
   <g id="patch_6">
    <path d="M 76.214 31.92 
L 412.177091 31.92 
" style="fill: none; stroke: #000000; stroke-width: 0.8; stroke-linejoin: miter; stroke-linecap: square"/>
   </g>
   <g id="text_15">
    <!-- Self Energy $\Sigma$ -->
    <g transform="translate(177.235545 25.92) scale(0.18 -0.18)">
     <defs>
      <path id="DejaVuSans-Bold-53" d="M 3834 4519 
L 3834 3531 
Q 3450 3703 3084 3790 
Q 2719 3878 2394 3878 
Q 1963 3878 1756 3759 
Q 1550 3641 1550 3391 
Q 1550 3203 1689 3098 
Q 1828 2994 2194 2919 
L 2706 2816 
Q 3484 2659 3812 2340 
Q 4141 2022 4141 1434 
Q 4141 663 3683 286 
Q 3225 -91 2284 -91 
Q 1841 -91 1394 -6 
Q 947 78 500 244 
L 500 1259 
Q 947 1022 1364 901 
Q 1781 781 2169 781 
Q 2563 781 2772 912 
Q 2981 1044 2981 1288 
Q 2981 1506 2839 1625 
Q 2697 1744 2272 1838 
L 1806 1941 
Q 1106 2091 782 2419 
Q 459 2747 459 3303 
Q 459 4000 909 4375 
Q 1359 4750 2203 4750 
Q 2588 4750 2994 4692 
Q 3400 4634 3834 4519 
z
" transform="scale(0.015625)"/>
      <path id="DejaVuSans-Bold-65" d="M 4031 1759 
L 4031 1441 
L 1416 1441 
Q 1456 1047 1700 850 
Q 1944 653 2381 653 
Q 2734 653 3104 758 
Q 3475 863 3866 1075 
L 3866 213 
Q 3469 63 3072 -14 
Q 2675 -91 2278 -91 
Q 1328 -91 801 392 
Q 275 875 275 1747 
Q 275 2603 792 3093 
Q 1309 3584 2216 3584 
Q 3041 3584 3536 3087 
Q 4031 2591 4031 1759 
z
M 2881 2131 
Q 2881 2450 2695 2645 
Q 2509 2841 2209 2841 
Q 1884 2841 1681 2658 
Q 1478 2475 1428 2131 
L 2881 2131 
z
" transform="scale(0.015625)"/>
      <path id="DejaVuSans-Bold-6c" d="M 538 4863 
L 1656 4863 
L 1656 0 
L 538 0 
L 538 4863 
z
" transform="scale(0.015625)"/>
      <path id="DejaVuSans-Bold-66" d="M 2841 4863 
L 2841 4128 
L 2222 4128 
Q 1984 4128 1890 4042 
Q 1797 3956 1797 3744 
L 1797 3500 
L 2753 3500 
L 2753 2700 
L 1797 2700 
L 1797 0 
L 678 0 
L 678 2700 
L 122 2700 
L 122 3500 
L 678 3500 
L 678 3744 
Q 678 4316 997 4589 
Q 1316 4863 1984 4863 
L 2841 4863 
z
" transform="scale(0.015625)"/>
      <path id="DejaVuSans-Bold-20" transform="scale(0.015625)"/>
      <path id="DejaVuSans-Bold-45" d="M 588 4666 
L 3834 4666 
L 3834 3756 
L 1791 3756 
L 1791 2888 
L 3713 2888 
L 3713 1978 
L 1791 1978 
L 1791 909 
L 3903 909 
L 3903 0 
L 588 0 
L 588 4666 
z
" transform="scale(0.015625)"/>
      <path id="DejaVuSans-Bold-6e" d="M 4056 2131 
L 4056 0 
L 2931 0 
L 2931 347 
L 2931 1631 
Q 2931 2084 2911 2256 
Q 2891 2428 2841 2509 
Q 2775 2619 2662 2680 
Q 2550 2741 2406 2741 
Q 2056 2741 1856 2470 
Q 1656 2200 1656 1722 
L 1656 0 
L 538 0 
L 538 3500 
L 1656 3500 
L 1656 2988 
Q 1909 3294 2193 3439 
Q 2478 3584 2822 3584 
Q 3428 3584 3742 3212 
Q 4056 2841 4056 2131 
z
" transform="scale(0.015625)"/>
      <path id="DejaVuSans-Bold-72" d="M 3138 2547 
Q 2991 2616 2845 2648 
Q 2700 2681 2553 2681 
Q 2122 2681 1889 2404 
Q 1656 2128 1656 1613 
L 1656 0 
L 538 0 
L 538 3500 
L 1656 3500 
L 1656 2925 
Q 1872 3269 2151 3426 
Q 2431 3584 2822 3584 
Q 2878 3584 2943 3579 
Q 3009 3575 3134 3559 
L 3138 2547 
z
" transform="scale(0.015625)"/>
      <path id="DejaVuSans-Bold-67" d="M 2919 594 
Q 2688 288 2409 144 
Q 2131 0 1766 0 
Q 1125 0 706 504 
Q 288 1009 288 1791 
Q 288 2575 706 3076 
Q 1125 3578 1766 3578 
Q 2131 3578 2409 3434 
Q 2688 3291 2919 2981 
L 2919 3500 
L 4044 3500 
L 4044 353 
Q 4044 -491 3511 -936 
Q 2978 -1381 1966 -1381 
Q 1638 -1381 1331 -1331 
Q 1025 -1281 716 -1178 
L 716 -306 
Q 1009 -475 1290 -558 
Q 1572 -641 1856 -641 
Q 2406 -641 2662 -400 
Q 2919 -159 2919 353 
L 2919 594 
z
M 2181 2772 
Q 1834 2772 1640 2515 
Q 1447 2259 1447 1791 
Q 1447 1309 1634 1061 
Q 1822 813 2181 813 
Q 2531 813 2725 1069 
Q 2919 1325 2919 1791 
Q 2919 2259 2725 2515 
Q 2531 2772 2181 2772 
z
" transform="scale(0.015625)"/>
      <path id="DejaVuSans-Bold-79" d="M 78 3500 
L 1197 3500 
L 2138 1125 
L 2938 3500 
L 4056 3500 
L 2584 -331 
Q 2363 -916 2067 -1148 
Q 1772 -1381 1288 -1381 
L 641 -1381 
L 641 -647 
L 991 -647 
Q 1275 -647 1404 -556 
Q 1534 -466 1606 -231 
L 1638 -134 
L 78 3500 
z
" transform="scale(0.015625)"/>
     </defs>
     <use xlink:href="#DejaVuSans-Bold-53" transform="translate(0 0.015625)"/>
     <use xlink:href="#DejaVuSans-Bold-65" transform="translate(72.021484 0.015625)"/>
     <use xlink:href="#DejaVuSans-Bold-6c" transform="translate(139.84375 0.015625)"/>
     <use xlink:href="#DejaVuSans-Bold-66" transform="translate(174.121094 0.015625)"/>
     <use xlink:href="#DejaVuSans-Bold-20" transform="translate(217.626953 0.015625)"/>
     <use xlink:href="#DejaVuSans-Bold-45" transform="translate(252.441406 0.015625)"/>
     <use xlink:href="#DejaVuSans-Bold-6e" transform="translate(320.751953 0.015625)"/>
     <use xlink:href="#DejaVuSans-Bold-65" transform="translate(391.943359 0.015625)"/>
     <use xlink:href="#DejaVuSans-Bold-72" transform="translate(459.765625 0.015625)"/>
     <use xlink:href="#DejaVuSans-Bold-67" transform="translate(509.082031 0.015625)"/>
     <use xlink:href="#DejaVuSans-Bold-79" transform="translate(580.664062 0.015625)"/>
     <use xlink:href="#DejaVuSans-Bold-20" transform="translate(645.849609 0.015625)"/>
     <use xlink:href="#DejaVuSans-3a3" transform="translate(680.664062 0.015625)"/>
    </g>
   </g>
   <g id="legend_1">
    <g id="patch_7">
     <path d="M 149.609139 280.8 
L 338.781952 280.8 
Q 341.581952 280.8 341.581952 278 
L 341.581952 197.2025 
Q 341.581952 194.4025 338.781952 194.4025 
L 149.609139 194.4025 
Q 146.809139 194.4025 146.809139 197.2025 
L 146.809139 278 
Q 146.809139 280.8 149.609139 280.8 
z
" style="fill: #ffffff; opacity: 0.8; stroke: #cccccc; stroke-linejoin: miter"/>
    </g>
    <g id="line2d_17">
     <path d="M 152.409139 205.740312 
L 166.409139 205.740312 
L 180.409139 205.740312 
" style="fill: none; stroke: #000000; stroke-width: 3; stroke-linecap: square"/>
    </g>
    <g id="text_16">
     <!-- CD -->
     <g transform="translate(191.609139 210.640312) scale(0.14 -0.14)">
      <defs>
       <path id="DejaVuSans-43" d="M 4122 4306 
L 4122 3641 
Q 3803 3938 3442 4084 
Q 3081 4231 2675 4231 
Q 1875 4231 1450 3742 
Q 1025 3253 1025 2328 
Q 1025 1406 1450 917 
Q 1875 428 2675 428 
Q 3081 428 3442 575 
Q 3803 722 4122 1019 
L 4122 359 
Q 3791 134 3420 21 
Q 3050 -91 2638 -91 
Q 1578 -91 968 557 
Q 359 1206 359 2328 
Q 359 3453 968 4101 
Q 1578 4750 2638 4750 
Q 3056 4750 3426 4639 
Q 3797 4528 4122 4306 
z
" transform="scale(0.015625)"/>
       <path id="DejaVuSans-44" d="M 1259 4147 
L 1259 519 
L 2022 519 
Q 2988 519 3436 956 
Q 3884 1394 3884 2338 
Q 3884 3275 3436 3711 
Q 2988 4147 2022 4147 
L 1259 4147 
z
M 628 4666 
L 1925 4666 
Q 3281 4666 3915 4102 
Q 4550 3538 4550 2338 
Q 4550 1131 3912 565 
Q 3275 0 1925 0 
L 628 0 
L 628 4666 
z
" transform="scale(0.015625)"/>
      </defs>
      <use xlink:href="#DejaVuSans-43"/>
      <use xlink:href="#DejaVuSans-44" x="69.824219"/>
     </g>
    </g>
    <g id="line2d_18">
     <path d="M 152.409139 226.289687 
L 166.409139 226.289687 
L 180.409139 226.289687 
" style="fill: none; stroke: #1f77b4; stroke-width: 2; stroke-linecap: square"/>
    </g>
    <g id="text_17">
     <!-- AC (64 bit) -->
     <g transform="translate(191.609139 231.189687) scale(0.14 -0.14)">
      <defs>
       <path id="DejaVuSans-41" d="M 2188 4044 
L 1331 1722 
L 3047 1722 
L 2188 4044 
z
M 1831 4666 
L 2547 4666 
L 4325 0 
L 3669 0 
L 3244 1197 
L 1141 1197 
L 716 0 
L 50 0 
L 1831 4666 
z
" transform="scale(0.015625)"/>
       <path id="DejaVuSans-36" d="M 2113 2584 
Q 1688 2584 1439 2293 
Q 1191 2003 1191 1497 
Q 1191 994 1439 701 
Q 1688 409 2113 409 
Q 2538 409 2786 701 
Q 3034 994 3034 1497 
Q 3034 2003 2786 2293 
Q 2538 2584 2113 2584 
z
M 3366 4563 
L 3366 3988 
Q 3128 4100 2886 4159 
Q 2644 4219 2406 4219 
Q 1781 4219 1451 3797 
Q 1122 3375 1075 2522 
Q 1259 2794 1537 2939 
Q 1816 3084 2150 3084 
Q 2853 3084 3261 2657 
Q 3669 2231 3669 1497 
Q 3669 778 3244 343 
Q 2819 -91 2113 -91 
Q 1303 -91 875 529 
Q 447 1150 447 2328 
Q 447 3434 972 4092 
Q 1497 4750 2381 4750 
Q 2619 4750 2861 4703 
Q 3103 4656 3366 4563 
z
" transform="scale(0.015625)"/>
       <path id="DejaVuSans-34" d="M 2419 4116 
L 825 1625 
L 2419 1625 
L 2419 4116 
z
M 2253 4666 
L 3047 4666 
L 3047 1625 
L 3713 1625 
L 3713 1100 
L 3047 1100 
L 3047 0 
L 2419 0 
L 2419 1100 
L 313 1100 
L 313 1709 
L 2253 4666 
z
" transform="scale(0.015625)"/>
       <path id="DejaVuSans-62" d="M 3116 1747 
Q 3116 2381 2855 2742 
Q 2594 3103 2138 3103 
Q 1681 3103 1420 2742 
Q 1159 2381 1159 1747 
Q 1159 1113 1420 752 
Q 1681 391 2138 391 
Q 2594 391 2855 752 
Q 3116 1113 3116 1747 
z
M 1159 2969 
Q 1341 3281 1617 3432 
Q 1894 3584 2278 3584 
Q 2916 3584 3314 3078 
Q 3713 2572 3713 1747 
Q 3713 922 3314 415 
Q 2916 -91 2278 -91 
Q 1894 -91 1617 61 
Q 1341 213 1159 525 
L 1159 0 
L 581 0 
L 581 4863 
L 1159 4863 
L 1159 2969 
z
" transform="scale(0.015625)"/>
       <path id="DejaVuSans-69" d="M 603 3500 
L 1178 3500 
L 1178 0 
L 603 0 
L 603 3500 
z
M 603 4863 
L 1178 4863 
L 1178 4134 
L 603 4134 
L 603 4863 
z
" transform="scale(0.015625)"/>
       <path id="DejaVuSans-74" d="M 1172 4494 
L 1172 3500 
L 2356 3500 
L 2356 3053 
L 1172 3053 
L 1172 1153 
Q 1172 725 1289 603 
Q 1406 481 1766 481 
L 2356 481 
L 2356 0 
L 1766 0 
Q 1100 0 847 248 
Q 594 497 594 1153 
L 594 3053 
L 172 3053 
L 172 3500 
L 594 3500 
L 594 4494 
L 1172 4494 
z
" transform="scale(0.015625)"/>
      </defs>
      <use xlink:href="#DejaVuSans-41"/>
      <use xlink:href="#DejaVuSans-43" x="66.658203"/>
      <use xlink:href="#DejaVuSans-20" x="136.482422"/>
      <use xlink:href="#DejaVuSans-28" x="168.269531"/>
      <use xlink:href="#DejaVuSans-36" x="207.283203"/>
      <use xlink:href="#DejaVuSans-34" x="270.90625"/>
      <use xlink:href="#DejaVuSans-20" x="334.529297"/>
      <use xlink:href="#DejaVuSans-62" x="366.316406"/>
      <use xlink:href="#DejaVuSans-69" x="429.792969"/>
      <use xlink:href="#DejaVuSans-74" x="457.576172"/>
      <use xlink:href="#DejaVuSans-29" x="496.785156"/>
     </g>
    </g>
    <g id="line2d_19">
     <path d="M 152.409139 246.839062 
L 166.409139 246.839062 
L 180.409139 246.839062 
" style="fill: none; stroke-dasharray: 7.4,3.2; stroke-dashoffset: 0; stroke: #ff7f0e; stroke-width: 2"/>
    </g>
    <g id="text_18">
     <!-- AC (64 bit + greedy) -->
     <g transform="translate(191.609139 251.739062) scale(0.14 -0.14)">
      <defs>
       <path id="DejaVuSans-2b" d="M 2944 4013 
L 2944 2272 
L 4684 2272 
L 4684 1741 
L 2944 1741 
L 2944 0 
L 2419 0 
L 2419 1741 
L 678 1741 
L 678 2272 
L 2419 2272 
L 2419 4013 
L 2944 4013 
z
" transform="scale(0.015625)"/>
       <path id="DejaVuSans-67" d="M 2906 1791 
Q 2906 2416 2648 2759 
Q 2391 3103 1925 3103 
Q 1463 3103 1205 2759 
Q 947 2416 947 1791 
Q 947 1169 1205 825 
Q 1463 481 1925 481 
Q 2391 481 2648 825 
Q 2906 1169 2906 1791 
z
M 3481 434 
Q 3481 -459 3084 -895 
Q 2688 -1331 1869 -1331 
Q 1566 -1331 1297 -1286 
Q 1028 -1241 775 -1147 
L 775 -588 
Q 1028 -725 1275 -790 
Q 1522 -856 1778 -856 
Q 2344 -856 2625 -561 
Q 2906 -266 2906 331 
L 2906 616 
Q 2728 306 2450 153 
Q 2172 0 1784 0 
Q 1141 0 747 490 
Q 353 981 353 1791 
Q 353 2603 747 3093 
Q 1141 3584 1784 3584 
Q 2172 3584 2450 3431 
Q 2728 3278 2906 2969 
L 2906 3500 
L 3481 3500 
L 3481 434 
z
" transform="scale(0.015625)"/>
       <path id="DejaVuSans-64" d="M 2906 2969 
L 2906 4863 
L 3481 4863 
L 3481 0 
L 2906 0 
L 2906 525 
Q 2725 213 2448 61 
Q 2172 -91 1784 -91 
Q 1150 -91 751 415 
Q 353 922 353 1747 
Q 353 2572 751 3078 
Q 1150 3584 1784 3584 
Q 2172 3584 2448 3432 
Q 2725 3281 2906 2969 
z
M 947 1747 
Q 947 1113 1208 752 
Q 1469 391 1925 391 
Q 2381 391 2643 752 
Q 2906 1113 2906 1747 
Q 2906 2381 2643 2742 
Q 2381 3103 1925 3103 
Q 1469 3103 1208 2742 
Q 947 2381 947 1747 
z
" transform="scale(0.015625)"/>
      </defs>
      <use xlink:href="#DejaVuSans-41"/>
      <use xlink:href="#DejaVuSans-43" x="66.658203"/>
      <use xlink:href="#DejaVuSans-20" x="136.482422"/>
      <use xlink:href="#DejaVuSans-28" x="168.269531"/>
      <use xlink:href="#DejaVuSans-36" x="207.283203"/>
      <use xlink:href="#DejaVuSans-34" x="270.90625"/>
      <use xlink:href="#DejaVuSans-20" x="334.529297"/>
      <use xlink:href="#DejaVuSans-62" x="366.316406"/>
      <use xlink:href="#DejaVuSans-69" x="429.792969"/>
      <use xlink:href="#DejaVuSans-74" x="457.576172"/>
      <use xlink:href="#DejaVuSans-20" x="496.785156"/>
      <use xlink:href="#DejaVuSans-2b" x="528.572266"/>
      <use xlink:href="#DejaVuSans-20" x="612.361328"/>
      <use xlink:href="#DejaVuSans-67" x="644.148438"/>
      <use xlink:href="#DejaVuSans-72" x="707.625"/>
      <use xlink:href="#DejaVuSans-65" x="746.488281"/>
      <use xlink:href="#DejaVuSans-65" x="808.011719"/>
      <use xlink:href="#DejaVuSans-64" x="869.535156"/>
      <use xlink:href="#DejaVuSans-79" x="933.011719"/>
      <use xlink:href="#DejaVuSans-29" x="992.191406"/>
     </g>
    </g>
    <g id="line2d_20">
     <path d="M 152.409139 267.388438 
L 166.409139 267.388438 
L 180.409139 267.388438 
" style="fill: none; stroke-dasharray: 2,3.3; stroke-dashoffset: 0; stroke: #2ca02c; stroke-width: 2"/>
    </g>
    <g id="text_19">
     <!-- AC (128 bit) -->
     <g transform="translate(191.609139 272.288437) scale(0.14 -0.14)">
      <defs>
       <path id="DejaVuSans-38" d="M 2034 2216 
Q 1584 2216 1326 1975 
Q 1069 1734 1069 1313 
Q 1069 891 1326 650 
Q 1584 409 2034 409 
Q 2484 409 2743 651 
Q 3003 894 3003 1313 
Q 3003 1734 2745 1975 
Q 2488 2216 2034 2216 
z
M 1403 2484 
Q 997 2584 770 2862 
Q 544 3141 544 3541 
Q 544 4100 942 4425 
Q 1341 4750 2034 4750 
Q 2731 4750 3128 4425 
Q 3525 4100 3525 3541 
Q 3525 3141 3298 2862 
Q 3072 2584 2669 2484 
Q 3125 2378 3379 2068 
Q 3634 1759 3634 1313 
Q 3634 634 3220 271 
Q 2806 -91 2034 -91 
Q 1263 -91 848 271 
Q 434 634 434 1313 
Q 434 1759 690 2068 
Q 947 2378 1403 2484 
z
M 1172 3481 
Q 1172 3119 1398 2916 
Q 1625 2713 2034 2713 
Q 2441 2713 2670 2916 
Q 2900 3119 2900 3481 
Q 2900 3844 2670 4047 
Q 2441 4250 2034 4250 
Q 1625 4250 1398 4047 
Q 1172 3844 1172 3481 
z
" transform="scale(0.015625)"/>
      </defs>
      <use xlink:href="#DejaVuSans-41"/>
      <use xlink:href="#DejaVuSans-43" x="66.658203"/>
      <use xlink:href="#DejaVuSans-20" x="136.482422"/>
      <use xlink:href="#DejaVuSans-28" x="168.269531"/>
      <use xlink:href="#DejaVuSans-31" x="207.283203"/>
      <use xlink:href="#DejaVuSans-32" x="270.90625"/>
      <use xlink:href="#DejaVuSans-38" x="334.529297"/>
      <use xlink:href="#DejaVuSans-20" x="398.152344"/>
      <use xlink:href="#DejaVuSans-62" x="429.939453"/>
      <use xlink:href="#DejaVuSans-69" x="493.416016"/>
      <use xlink:href="#DejaVuSans-74" x="521.199219"/>
      <use xlink:href="#DejaVuSans-29" x="560.408203"/>
     </g>
    </g>
   </g>
  </g>
  <g id="axes_2">
   <g id="patch_8">
    <path d="M 507.066909 287.8 
L 843.03 287.8 
L 843.03 31.92 
L 507.066909 31.92 
z
" style="fill: #ffffff"/>
   </g>
   <g id="matplotlib.axis_3">
    <g id="xtick_8">
     <g id="line2d_21">
      <g>
       <use xlink:href="#m8adbf6bdd5" x="507.066909" y="287.8" style="stroke: #000000; stroke-width: 0.8"/>
      </g>
     </g>
     <g id="text_20">
      <!-- 0 -->
      <g transform="translate(501.976909 306.9575) scale(0.16 -0.16)">
       <use xlink:href="#DejaVuSans-30"/>
      </g>
     </g>
    </g>
    <g id="xtick_9">
     <g id="line2d_22">
      <g>
       <use xlink:href="#m8adbf6bdd5" x="591.057682" y="287.8" style="stroke: #000000; stroke-width: 0.8"/>
      </g>
     </g>
     <g id="text_21">
      <!-- 10 -->
      <g transform="translate(580.877682 306.9575) scale(0.16 -0.16)">
       <use xlink:href="#DejaVuSans-31"/>
       <use xlink:href="#DejaVuSans-30" x="63.623047"/>
      </g>
     </g>
    </g>
    <g id="xtick_10">
     <g id="line2d_23">
      <g>
       <use xlink:href="#m8adbf6bdd5" x="675.048455" y="287.8" style="stroke: #000000; stroke-width: 0.8"/>
      </g>
     </g>
     <g id="text_22">
      <!-- 20 -->
      <g transform="translate(664.868455 306.9575) scale(0.16 -0.16)">
       <use xlink:href="#DejaVuSans-32"/>
       <use xlink:href="#DejaVuSans-30" x="63.623047"/>
      </g>
     </g>
    </g>
    <g id="xtick_11">
     <g id="line2d_24">
      <g>
       <use xlink:href="#m8adbf6bdd5" x="759.039227" y="287.8" style="stroke: #000000; stroke-width: 0.8"/>
      </g>
     </g>
     <g id="text_23">
      <!-- 30 -->
      <g transform="translate(748.859227 306.9575) scale(0.16 -0.16)">
       <defs>
        <path id="DejaVuSans-33" d="M 2597 2516 
Q 3050 2419 3304 2112 
Q 3559 1806 3559 1356 
Q 3559 666 3084 287 
Q 2609 -91 1734 -91 
Q 1441 -91 1130 -33 
Q 819 25 488 141 
L 488 750 
Q 750 597 1062 519 
Q 1375 441 1716 441 
Q 2309 441 2620 675 
Q 2931 909 2931 1356 
Q 2931 1769 2642 2001 
Q 2353 2234 1838 2234 
L 1294 2234 
L 1294 2753 
L 1863 2753 
Q 2328 2753 2575 2939 
Q 2822 3125 2822 3475 
Q 2822 3834 2567 4026 
Q 2313 4219 1838 4219 
Q 1578 4219 1281 4162 
Q 984 4106 628 3988 
L 628 4550 
Q 988 4650 1302 4700 
Q 1616 4750 1894 4750 
Q 2613 4750 3031 4423 
Q 3450 4097 3450 3541 
Q 3450 3153 3228 2886 
Q 3006 2619 2597 2516 
z
" transform="scale(0.015625)"/>
       </defs>
       <use xlink:href="#DejaVuSans-33"/>
       <use xlink:href="#DejaVuSans-30" x="63.623047"/>
      </g>
     </g>
    </g>
    <g id="xtick_12">
     <g id="line2d_25">
      <g>
       <use xlink:href="#m8adbf6bdd5" x="843.03" y="287.8" style="stroke: #000000; stroke-width: 0.8"/>
      </g>
     </g>
     <g id="text_24">
      <!-- 40 -->
      <g transform="translate(832.85 306.9575) scale(0.16 -0.16)">
       <use xlink:href="#DejaVuSans-34"/>
       <use xlink:href="#DejaVuSans-30" x="63.623047"/>
      </g>
     </g>
    </g>
    <g id="text_25">
     <!-- Real Frequency $\omega$ [eV] -->
     <g transform="translate(584.328455 326.445) scale(0.16 -0.16)">
      <use xlink:href="#DejaVuSans-52" transform="translate(0 0.015625)"/>
      <use xlink:href="#DejaVuSans-65" transform="translate(69.482422 0.015625)"/>
      <use xlink:href="#DejaVuSans-61" transform="translate(131.005859 0.015625)"/>
      <use xlink:href="#DejaVuSans-6c" transform="translate(192.285156 0.015625)"/>
      <use xlink:href="#DejaVuSans-20" transform="translate(220.068359 0.015625)"/>
      <use xlink:href="#DejaVuSans-46" transform="translate(251.855469 0.015625)"/>
      <use xlink:href="#DejaVuSans-72" transform="translate(309.375 0.015625)"/>
      <use xlink:href="#DejaVuSans-65" transform="translate(350.488281 0.015625)"/>
      <use xlink:href="#DejaVuSans-71" transform="translate(412.011719 0.015625)"/>
      <use xlink:href="#DejaVuSans-75" transform="translate(475.488281 0.015625)"/>
      <use xlink:href="#DejaVuSans-65" transform="translate(538.867188 0.015625)"/>
      <use xlink:href="#DejaVuSans-6e" transform="translate(600.390625 0.015625)"/>
      <use xlink:href="#DejaVuSans-63" transform="translate(663.769531 0.015625)"/>
      <use xlink:href="#DejaVuSans-79" transform="translate(718.75 0.015625)"/>
      <use xlink:href="#DejaVuSans-20" transform="translate(777.929688 0.015625)"/>
      <use xlink:href="#DejaVuSans-Oblique-3c9" transform="translate(809.716797 0.015625)"/>
      <use xlink:href="#DejaVuSans-20" transform="translate(893.457031 0.015625)"/>
      <use xlink:href="#DejaVuSans-5b" transform="translate(925.244141 0.015625)"/>
      <use xlink:href="#DejaVuSans-65" transform="translate(964.257812 0.015625)"/>
      <use xlink:href="#DejaVuSans-56" transform="translate(1025.78125 0.015625)"/>
      <use xlink:href="#DejaVuSans-5d" transform="translate(1094.189453 0.015625)"/>
     </g>
    </g>
   </g>
   <g id="matplotlib.axis_4">
    <g id="ytick_6">
     <g id="line2d_26">
      <g>
       <use xlink:href="#me1a1780dc8" x="507.066909" y="229.741706" style="stroke: #000000; stroke-width: 0.8"/>
      </g>
     </g>
     <g id="text_26">
      <!-- −1000 -->
      <g transform="translate(445.939409 235.820456) scale(0.16 -0.16)">
       <use xlink:href="#DejaVuSans-2212"/>
       <use xlink:href="#DejaVuSans-31" x="83.789062"/>
       <use xlink:href="#DejaVuSans-30" x="147.412109"/>
       <use xlink:href="#DejaVuSans-30" x="211.035156"/>
       <use xlink:href="#DejaVuSans-30" x="274.658203"/>
      </g>
     </g>
    </g>
    <g id="ytick_7">
     <g id="line2d_27">
      <g>
       <use xlink:href="#me1a1780dc8" x="507.066909" y="158.011015" style="stroke: #000000; stroke-width: 0.8"/>
      </g>
     </g>
     <g id="text_27">
      <!-- 0 -->
      <g transform="translate(489.886909 164.089765) scale(0.16 -0.16)">
       <use xlink:href="#DejaVuSans-30"/>
      </g>
     </g>
    </g>
    <g id="ytick_8">
     <g id="line2d_28">
      <g>
       <use xlink:href="#me1a1780dc8" x="507.066909" y="86.280323" style="stroke: #000000; stroke-width: 0.8"/>
      </g>
     </g>
     <g id="text_28">
      <!-- 1000 -->
      <g transform="translate(459.346909 92.359073) scale(0.16 -0.16)">
       <use xlink:href="#DejaVuSans-31"/>
       <use xlink:href="#DejaVuSans-30" x="63.623047"/>
       <use xlink:href="#DejaVuSans-30" x="127.246094"/>
       <use xlink:href="#DejaVuSans-30" x="190.869141"/>
      </g>
     </g>
    </g>
    <g id="text_29">
     <!-- $\operatorname{Re}(W_{C1s}(\omega))$ [eV] -->
     <g transform="translate(438.611909 227.3) rotate(-90) scale(0.16 -0.16)">
      <defs>
       <path id="DejaVuSans-Oblique-57" d="M 616 4666 
L 1228 4666 
L 1453 697 
L 3213 4666 
L 3916 4666 
L 4147 697 
L 5888 4666 
L 6528 4666 
L 4453 0 
L 3659 0 
L 3444 3891 
L 1697 0 
L 903 0 
L 616 4666 
z
" transform="scale(0.015625)"/>
       <path id="DejaVuSans-Oblique-43" d="M 4447 4306 
L 4319 3641 
Q 4019 3944 3683 4091 
Q 3347 4238 2956 4238 
Q 2422 4238 2017 3981 
Q 1613 3725 1319 3200 
Q 1131 2863 1032 2486 
Q 934 2109 934 1728 
Q 934 1091 1264 756 
Q 1594 422 2222 422 
Q 2656 422 3056 561 
Q 3456 700 3834 978 
L 3688 231 
Q 3316 72 2936 -9 
Q 2556 -91 2175 -91 
Q 1278 -91 773 396 
Q 269 884 269 1753 
Q 269 2309 461 2846 
Q 653 3384 1013 3828 
Q 1394 4300 1883 4525 
Q 2372 4750 3022 4750 
Q 3422 4750 3780 4639 
Q 4138 4528 4447 4306 
z
" transform="scale(0.015625)"/>
       <path id="DejaVuSans-Oblique-73" d="M 3200 3397 
L 3091 2853 
Q 2863 2978 2609 3040 
Q 2356 3103 2088 3103 
Q 1634 3103 1373 2948 
Q 1113 2794 1113 2528 
Q 1113 2219 1719 2053 
Q 1766 2041 1788 2034 
L 1972 1978 
Q 2547 1819 2739 1644 
Q 2931 1469 2931 1166 
Q 2931 609 2489 259 
Q 2047 -91 1331 -91 
Q 1053 -91 747 -37 
Q 441 16 72 128 
L 184 722 
Q 500 559 806 475 
Q 1113 391 1394 391 
Q 1816 391 2080 572 
Q 2344 753 2344 1031 
Q 2344 1331 1650 1516 
L 1591 1531 
L 1394 1581 
Q 956 1697 753 1886 
Q 550 2075 550 2369 
Q 550 2928 970 3256 
Q 1391 3584 2113 3584 
Q 2397 3584 2667 3537 
Q 2938 3491 3200 3397 
z
" transform="scale(0.015625)"/>
      </defs>
      <use xlink:href="#DejaVuSans-52" transform="translate(0 0.015625)"/>
      <use xlink:href="#DejaVuSans-65" transform="translate(69.482422 0.015625)"/>
      <use xlink:href="#DejaVuSans-28" transform="translate(131.005859 0.015625)"/>
      <use xlink:href="#DejaVuSans-Oblique-57" transform="translate(170.019531 0.015625)"/>
      <use xlink:href="#DejaVuSans-Oblique-43" transform="translate(268.896484 -16.390625) scale(0.7)"/>
      <use xlink:href="#DejaVuSans-31" transform="translate(317.773438 -16.390625) scale(0.7)"/>
      <use xlink:href="#DejaVuSans-Oblique-73" transform="translate(362.30957 -16.390625) scale(0.7)"/>
      <use xlink:href="#DejaVuSans-28" transform="translate(401.513672 0.015625)"/>
      <use xlink:href="#DejaVuSans-Oblique-3c9" transform="translate(440.527344 0.015625)"/>
      <use xlink:href="#DejaVuSans-29" transform="translate(524.267578 0.015625)"/>
      <use xlink:href="#DejaVuSans-29" transform="translate(563.28125 0.015625)"/>
      <use xlink:href="#DejaVuSans-20" transform="translate(602.294922 0.015625)"/>
      <use xlink:href="#DejaVuSans-5b" transform="translate(634.082031 0.015625)"/>
      <use xlink:href="#DejaVuSans-65" transform="translate(673.095703 0.015625)"/>
      <use xlink:href="#DejaVuSans-56" transform="translate(734.619141 0.015625)"/>
      <use xlink:href="#DejaVuSans-5d" transform="translate(803.027344 0.015625)"/>
     </g>
    </g>
   </g>
   <g id="line2d_29">
    <path d="M 507.066909 161.891588 
L 536.883633 162.002229 
L 559.561142 162.291835 
L 571.31985 162.633692 
L 575.099435 162.903547 
L 576.77925 163.2196 
L 577.619158 163.602431 
L 578.039112 163.866947 
L 578.459066 163.326558 
L 578.87902 161.66621 
L 579.298974 161.680779 
L 580.138881 162.15029 
L 581.398743 162.476394 
L 583.918466 162.789437 
L 590.637728 163.543553 
L 592.737497 163.969221 
L 594.417313 164.53314 
L 595.25722 164.976255 
L 596.097128 165.640185 
L 596.937036 166.754214 
L 597.35699 167.645683 
L 597.776944 168.946552 
L 598.196897 170.820032 
L 598.616851 172.075504 
L 599.456759 153.646023 
L 599.876713 155.050415 
L 600.296667 156.893335 
L 600.716621 158.170966 
L 601.556528 159.688947 
L 602.396436 160.549332 
L 603.656298 161.343228 
L 607.855836 163.369428 
L 608.27579 163.010418 
L 608.695744 161.184751 
L 609.115698 161.167531 
L 609.955606 161.807091 
L 611.215467 162.324383 
L 616.674868 164.042215 
L 617.094821 164.23521 
L 617.934729 165.107523 
L 618.354683 165.835424 
L 618.774637 166.807998 
L 619.194591 166.462455 
L 619.614545 160.212108 
L 620.034498 158.955802 
L 620.874406 160.707027 
L 621.714314 161.654179 
L 622.554222 162.155506 
L 624.653991 163.083124 
L 625.073945 163.039604 
L 625.913852 163.43068 
L 626.75376 163.964912 
L 627.593668 164.808519 
L 628.433576 166.336218 
L 628.85353 165.163302 
L 629.273483 159.856788 
L 629.693437 159.644261 
L 630.533345 161.105283 
L 631.373253 161.857427 
L 632.633114 162.470627 
L 634.31293 162.96946 
L 635.992745 163.314435 
L 641.032192 164.469119 
L 641.452145 164.636578 
L 642.292053 164.56488 
L 643.131961 165.090653 
L 643.551915 165.404139 
L 643.971869 165.535119 
L 644.391822 165.860135 
L 644.811776 165.808651 
L 645.23173 163.389094 
L 645.651684 163.03537 
L 646.491592 163.963409 
L 648.171407 165.069089 
L 649.431269 165.966705 
L 650.271177 166.817101 
L 651.111084 168.011145 
L 651.531038 165.837962 
L 651.950992 162.73229 
L 652.370946 163.258312 
L 653.210854 164.658982 
L 654.890669 166.539133 
L 655.310623 166.605094 
L 655.730577 166.896951 
L 656.570485 168.303 
L 656.990438 169.278118 
L 657.410392 170.606514 
L 658.2503 174.523857 
L 658.670254 169.408272 
L 659.090208 156.622359 
L 659.510162 157.085646 
L 659.930115 159.268942 
L 660.350069 160.862603 
L 661.189977 162.862613 
L 662.029885 164.163069 
L 663.7097 166.319381 
L 664.129654 166.416227 
L 664.549608 166.114168 
L 665.389516 167.241444 
L 666.649377 169.38457 
L 667.489285 171.486407 
L 667.909239 172.977358 
L 668.329193 174.957019 
L 668.749147 177.853225 
L 669.589054 185.504052 
L 670.428962 145.376054 
L 670.848916 148.481787 
L 671.688824 155.517854 
L 672.528731 159.374411 
L 673.368639 162.003967 
L 673.788593 163.008986 
L 674.208547 162.282371 
L 674.628501 161.81853 
L 676.72827 166.038137 
L 677.148224 166.0044 
L 677.568178 165.640377 
L 678.408085 167.465819 
L 679.247993 169.775323 
L 679.667947 171.286838 
L 680.087901 173.259746 
L 680.507855 175.971968 
L 681.347763 182.76989 
L 681.767716 176.138627 
L 682.18767 147.404163 
L 682.607624 146.2609 
L 683.447532 154.446398 
L 684.28744 158.950287 
L 685.127347 162.300799 
L 685.547301 163.391078 
L 685.967255 160.605427 
L 686.387209 159.592763 
L 687.227117 161.953069 
L 688.067024 161.744618 
L 689.326886 163.893513 
L 692.266563 168.052549 
L 693.106471 169.759651 
L 693.526425 170.921998 
L 693.946378 172.465891 
L 694.366332 174.534966 
L 694.786286 175.775685 
L 695.20624 166.647893 
L 695.626194 161.251068 
L 696.886055 166.774382 
L 697.725963 168.757106 
L 698.565871 171.626262 
L 699.405779 174.932621 
L 700.245686 167.899272 
L 701.505548 173.086816 
L 703.185363 179.878855 
L 704.025271 184.072399 
L 704.865179 190.087207 
L 705.705087 199.085453 
L 706.12504 205.570311 
L 706.544994 214.300516 
L 706.964948 226.580415 
L 707.384902 244.539337 
L 707.804856 269.627244 
L 708.22481 276.169091 
L 708.644764 124.491464 
L 709.064718 43.550909 
L 709.904625 89.445384 
L 710.744533 116.711263 
L 711.164487 122.489175 
L 711.584441 118.241129 
L 712.004395 122.125653 
L 712.844302 131.3712 
L 713.68421 137.42746 
L 714.524118 140.41849 
L 715.783979 145.452339 
L 716.623887 147.991064 
L 717.043841 148.680781 
L 718.303702 152.405657 
L 719.14361 155.702293 
L 719.563564 158.000082 
L 720.403472 163.785254 
L 721.24338 139.778452 
L 721.663333 142.011335 
L 722.503241 147.413175 
L 722.923195 149.1748 
L 723.343149 150.0951 
L 723.763103 150.458433 
L 725.442918 154.351748 
L 726.70278 157.105521 
L 727.542688 159.601615 
L 727.962641 161.252928 
L 728.382595 163.385309 
L 728.802549 166.20851 
L 729.222503 170.001918 
L 729.642457 175.121555 
L 730.062411 169.564325 
L 730.482365 136.949262 
L 730.902318 134.559759 
L 731.742226 144.155613 
L 733.002088 153.278615 
L 733.422042 154.870296 
L 733.841995 147.284647 
L 734.261949 142.094048 
L 734.681903 143.542563 
L 735.521811 147.009398 
L 736.361719 148.995773 
L 737.201626 150.33085 
L 738.881442 151.894173 
L 740.561257 153.193767 
L 742.661027 154.757805 
L 743.500934 155.675286 
L 743.920888 155.357702 
L 744.340842 153.48163 
L 744.760796 153.559464 
L 745.600704 154.413724 
L 746.860565 155.226394 
L 750.64015 157.115453 
L 751.060104 156.932066 
L 751.480058 157.027063 
L 753.579827 158.428262 
L 754.419735 159.179883 
L 755.259643 160.310445 
L 755.679596 161.010148 
L 756.09955 160.259679 
L 756.519504 158.279604 
L 756.939458 158.912608 
L 757.779366 160.758085 
L 758.19932 162.025055 
L 759.039227 165.71135 
L 759.459181 164.758725 
L 759.879135 153.9645 
L 760.299089 152.912792 
L 761.138997 157.306016 
L 761.55895 158.014387 
L 761.978904 157.720101 
L 762.398858 159.360797 
L 763.238766 164.35908 
L 763.65872 166.892626 
L 764.078674 157.956137 
L 764.498627 145.305648 
L 764.918581 147.02786 
L 765.758489 151.75448 
L 766.598397 154.631356 
L 767.438305 157.249636 
L 768.278212 160.721688 
L 768.698166 159.344191 
L 769.11812 151.513875 
L 769.538074 151.94649 
L 769.958028 154.254862 
L 770.377982 154.152776 
L 770.797935 149.351097 
L 771.217889 149.658357 
L 772.057797 151.9959 
L 772.897705 153.359918 
L 773.737613 154.288362 
L 775.417428 155.705664 
L 776.67729 156.811544 
L 777.517197 157.871646 
L 778.357105 159.491149 
L 778.777059 158.015179 
L 779.197013 154.688768 
L 779.616967 155.361248 
L 780.456874 157.523667 
L 780.876828 155.711463 
L 781.296782 154.400886 
L 782.13669 156.1097 
L 782.556644 154.736083 
L 782.976598 153.749178 
L 784.236459 155.498227 
L 785.496321 156.687594 
L 785.916275 157.16206 
L 786.336228 157.341229 
L 786.756182 156.035149 
L 787.176136 155.865001 
L 789.695859 158.547628 
L 790.115813 158.81222 
L 790.535767 157.091975 
L 790.955721 156.677266 
L 792.215582 158.701786 
L 793.05549 160.673456 
L 793.475444 160.997089 
L 793.895398 155.363479 
L 794.315352 153.122484 
L 795.15526 155.066964 
L 795.995167 156.249976 
L 797.255029 157.334488 
L 800.61466 159.81887 
L 801.454567 160.73663 
L 802.294475 162.034156 
L 802.714429 162.940838 
L 803.134383 164.144692 
L 803.554337 165.823119 
L 804.394245 170.608622 
L 804.814198 162.91031 
L 805.234152 149.99143 
L 805.654106 151.610386 
L 807.753875 167.081453 
L 808.173829 163.548042 
L 808.593783 142.769428 
L 809.013737 141.173975 
L 809.853645 147.066915 
L 810.693553 150.177102 
L 811.53346 152.123793 
L 811.953414 152.937859 
L 812.373368 153.212129 
L 812.793322 152.033924 
L 813.213276 152.187007 
L 814.053183 153.163117 
L 814.893091 153.816884 
L 816.152953 154.49914 
L 817.832768 155.149982 
L 820.352491 155.876349 
L 825.391938 157.198953 
L 826.231845 157.585268 
L 826.651799 157.526706 
L 827.071753 156.81094 
L 827.491707 156.844051 
L 828.751569 157.425166 
L 831.271292 158.495022 
L 832.1112 159.073004 
L 832.951107 159.9997 
L 833.371061 160.144519 
L 833.791015 159.009944 
L 834.210969 159.464529 
L 835.050877 161.593896 
L 835.890784 153.981684 
L 837.150646 156.491623 
L 837.5706 157.178242 
L 837.990554 157.589648 
L 838.410507 158.257048 
L 838.830461 158.421381 
L 839.250415 156.947899 
L 839.670369 157.401392 
L 840.090323 158.509893 
L 840.510277 159.224649 
L 840.930231 155.848348 
L 841.350185 153.774351 
L 842.190092 155.448439 
L 842.610046 155.840997 
L 843.03 155.679557 
L 843.449954 155.997071 
L 843.449954 155.997071 
" clip-path="url(#p6cca2cbacf)" style="fill: none; stroke: #000000; stroke-width: 3; stroke-linecap: square"/>
   </g>
   <g id="line2d_30">
    <path d="M 507.066909 161.8916 
L 512.946263 161.961201 
L 513.366217 162.040476 
L 513.786171 161.830915 
L 514.626079 161.905141 
L 518.825617 161.901538 
L 525.964833 161.934203 
L 554.101742 162.196396 
L 568.800127 162.53114 
L 574.259527 162.818673 
L 576.359297 163.107817 
L 577.199204 163.375554 
L 578.039112 163.863768 
L 578.459066 163.323426 
L 578.87902 161.672696 
L 579.298974 161.683435 
L 580.138881 162.150757 
L 581.398743 162.476496 
L 583.918466 162.789458 
L 590.637728 163.543466 
L 592.737497 163.96894 
L 594.417313 164.532306 
L 595.25722 164.974642 
L 596.097128 165.636616 
L 596.937036 166.744364 
L 597.35699 167.626998 
L 597.776944 168.906038 
L 598.196897 170.715796 
L 598.616851 171.799283 
L 599.456759 153.943051 
L 599.876713 155.161157 
L 600.296667 156.93796 
L 600.716621 158.192422 
L 601.556528 159.696109 
L 602.396436 160.552551 
L 603.656298 161.344556 
L 607.855836 163.369294 
L 608.27579 163.009337 
L 608.695744 161.18825 
L 609.115698 161.169173 
L 609.955606 161.807498 
L 611.215467 162.324548 
L 616.674868 164.042449 
L 617.094821 164.235387 
L 617.934729 165.106925 
L 618.354683 165.833811 
L 618.774637 166.803216 
L 619.194591 166.452285 
L 619.614545 160.224597 
L 620.034498 158.963237 
L 620.874406 160.708237 
L 621.714314 161.654601 
L 622.554222 162.155846 
L 624.653991 163.083509 
L 625.073945 163.040515 
L 625.913852 163.430847 
L 626.75376 163.964879 
L 627.593668 164.808034 
L 628.433576 166.332008 
L 628.85353 165.157811 
L 629.273483 159.867811 
L 629.693437 159.649114 
L 630.533345 161.106146 
L 631.373253 161.857722 
L 632.633114 162.470736 
L 634.31293 162.969531 
L 635.992745 163.314473 
L 641.032192 164.469138 
L 641.452145 164.636573 
L 642.292053 164.565314 
L 643.131961 165.09055 
L 643.551915 165.403807 
L 643.971869 165.534739 
L 644.391822 165.857765 
L 644.811776 165.802927 
L 645.23173 163.394839 
L 645.651684 163.038781 
L 646.491592 163.963909 
L 648.171407 165.069036 
L 649.431269 165.96625 
L 650.271177 166.816024 
L 651.111084 168.003217 
L 651.531038 165.83517 
L 651.950992 162.742478 
L 652.370946 163.261961 
L 653.210854 164.659456 
L 654.890669 166.538712 
L 655.310623 166.605246 
L 655.730577 166.896566 
L 656.570485 168.300858 
L 656.990438 169.274333 
L 657.410392 170.59911 
L 658.2503 174.477527 
L 658.670254 169.356017 
L 659.090208 156.670595 
L 659.510162 157.104657 
L 660.350069 160.865208 
L 661.189977 162.863157 
L 662.029885 164.163121 
L 663.7097 166.318334 
L 664.129654 166.415853 
L 664.549608 166.116225 
L 665.389516 167.241143 
L 666.649377 169.382987 
L 667.489285 171.482864 
L 667.909239 172.971573 
L 668.329193 174.946703 
L 668.749147 177.831901 
L 669.589054 185.359288 
L 670.428962 145.504563 
L 670.848916 148.527025 
L 671.688824 155.525629 
L 672.528731 159.376587 
L 673.368639 162.004476 
L 673.788593 163.008611 
L 674.208547 162.283911 
L 674.628501 161.820339 
L 676.72827 166.0346 
L 677.148224 166.003418 
L 677.568178 165.644914 
L 678.408085 167.465228 
L 679.247993 169.772552 
L 679.667947 171.282179 
L 680.087901 173.251405 
L 680.507855 175.955159 
L 681.347763 182.672592 
L 681.767716 175.986422 
L 682.18767 147.557847 
L 682.607624 146.330764 
L 683.447532 154.45697 
L 684.28744 158.953248 
L 685.127347 162.301941 
L 685.547301 163.39194 
L 685.967255 160.610279 
L 686.387209 159.595829 
L 687.227117 161.952956 
L 688.067024 161.745546 
L 689.326886 163.893325 
L 692.266563 168.051074 
L 693.106471 169.75666 
L 693.526425 170.917166 
L 693.946378 172.456903 
L 694.366332 174.514566 
L 694.786286 175.724647 
L 695.20624 166.632518 
L 695.626194 161.261831 
L 696.886055 166.77208 
L 697.725963 168.754351 
L 698.565871 171.618514 
L 699.405779 174.894548 
L 700.245686 167.90675 
L 701.085594 171.383539 
L 703.605317 181.842037 
L 704.445225 186.784778 
L 705.285133 194.028174 
L 705.705087 199.00806 
L 706.12504 205.447539 
L 706.544994 214.090508 
L 706.964948 226.182533 
L 707.384902 243.672135 
L 707.804856 267.385875 
L 708.22481 270.774078 
L 708.644764 127.252406 
L 709.064718 47.782574 
L 710.324579 105.120479 
L 710.744533 116.939427 
L 711.164487 122.74284 
L 711.584441 118.514204 
L 712.004395 122.260329 
L 712.844302 131.417228 
L 713.68421 137.44966 
L 714.524118 140.434052 
L 715.783979 145.460529 
L 716.623887 147.997237 
L 717.043841 148.687193 
L 718.303702 152.410493 
L 719.14361 155.706557 
L 719.563564 158.003323 
L 720.403472 163.767767 
L 721.24338 139.900324 
L 721.663333 142.059346 
L 722.503241 147.425076 
L 722.923195 149.181827 
L 723.343149 150.100094 
L 723.763103 150.463691 
L 725.442918 154.354163 
L 726.70278 157.107516 
L 727.542688 159.602757 
L 727.962641 161.253176 
L 728.382595 163.383396 
L 728.802549 166.201142 
L 729.222503 169.981067 
L 729.642457 175.04878 
L 730.062411 169.468968 
L 730.482365 137.241647 
L 730.902318 134.696536 
L 731.742226 144.181821 
L 733.002088 153.28061 
L 733.422042 154.863424 
L 733.841995 147.345459 
L 734.261949 142.15239 
L 734.681903 143.568007 
L 735.521811 147.016359 
L 736.361719 148.999074 
L 737.201626 150.332854 
L 738.881442 151.895213 
L 740.561257 153.194337 
L 742.661027 154.757201 
L 743.500934 155.669061 
L 743.920888 155.348129 
L 744.340842 153.4914 
L 744.760796 153.564012 
L 745.600704 154.414626 
L 746.860565 155.22672 
L 750.64015 157.114899 
L 751.060104 156.932336 
L 751.480058 157.027318 
L 753.579827 158.427966 
L 754.419735 159.179069 
L 755.259643 160.307476 
L 755.679596 161.002946 
L 756.09955 160.248552 
L 756.519504 158.277351 
L 756.939458 158.910455 
L 757.779366 160.753184 
L 758.19932 162.015556 
L 759.039227 165.651965 
L 759.459181 164.645334 
L 759.879135 154.061308 
L 760.299089 152.967637 
L 761.138997 157.316591 
L 761.55895 158.029052 
L 761.978904 157.736792 
L 762.398858 159.366449 
L 763.238766 164.345243 
L 763.65872 166.844027 
L 764.078674 157.978813 
L 764.498627 145.418958 
L 764.918581 147.071116 
L 765.758489 151.763199 
L 766.598397 154.63326 
L 767.438305 157.244838 
L 768.278212 160.674874 
L 768.698166 159.280757 
L 769.11812 151.619135 
L 769.538074 151.992555 
L 769.958028 154.265585 
L 770.377982 154.150961 
L 770.797935 149.377389 
L 771.217889 149.670953 
L 772.057797 151.999083 
L 772.897705 153.361392 
L 773.737613 154.289271 
L 775.417428 155.706222 
L 776.67729 156.812121 
L 777.517197 157.872447 
L 778.357105 159.492851 
L 778.777059 158.021884 
L 779.197013 154.697527 
L 779.616967 155.363706 
L 780.456874 157.514178 
L 780.876828 155.71456 
L 781.296782 154.410405 
L 782.13669 156.108174 
L 782.556644 154.743823 
L 782.976598 153.757281 
L 784.236459 155.499426 
L 785.496321 156.688035 
L 785.916275 157.162018 
L 786.336228 157.340811 
L 786.756182 156.042468 
L 787.176136 155.869171 
L 789.695859 158.546325 
L 790.115813 158.808688 
L 790.535767 157.098976 
L 790.955721 156.682121 
L 792.215582 158.700063 
L 793.05549 160.658483 
L 793.475444 160.959255 
L 793.895398 155.399764 
L 794.315352 153.156185 
L 795.15526 155.07224 
L 795.995167 156.251577 
L 797.255029 157.334995 
L 800.61466 159.818461 
L 801.454567 160.735551 
L 802.294475 162.031252 
L 802.714429 162.935728 
L 803.134383 164.134918 
L 803.554337 165.801988 
L 804.394245 170.454974 
L 804.814198 162.85437 
L 805.234152 150.219923 
L 805.654106 151.69662 
L 807.753875 166.935045 
L 808.173829 163.321421 
L 808.593783 143.105025 
L 809.013737 141.338276 
L 809.853645 147.095404 
L 810.693553 150.186353 
L 811.53346 152.127839 
L 811.953414 152.940142 
L 812.373368 153.213506 
L 812.793322 152.041736 
L 813.213276 152.191344 
L 814.053183 153.164669 
L 814.893091 153.817808 
L 816.152953 154.499701 
L 817.832768 155.150334 
L 820.352491 155.876567 
L 825.391938 157.199014 
L 826.231845 157.58474 
L 826.651799 157.525912 
L 827.071753 156.813239 
L 827.491707 156.845181 
L 828.751569 157.425403 
L 831.271292 158.49518 
L 832.1112 159.073032 
L 832.951107 159.998339 
L 833.371061 160.142141 
L 833.791015 159.015871 
L 834.210969 159.466857 
L 835.050877 161.585715 
L 835.890784 154.004105 
L 837.150646 156.493755 
L 837.5706 157.179871 
L 837.990554 157.59065 
L 838.410507 158.257182 
L 838.830461 158.422354 
L 839.250415 156.954481 
L 839.670369 157.405246 
L 840.090323 158.510957 
L 840.510277 159.22358 
L 840.930231 155.86141 
L 841.350185 153.785465 
L 842.190092 155.448472 
L 842.610046 155.846419 
L 843.03 155.676155 
L 843.449954 156.000162 
L 843.449954 156.000162 
" clip-path="url(#p6cca2cbacf)" style="fill: none; stroke: #1f77b4; stroke-width: 2; stroke-linecap: square"/>
   </g>
   <g id="line2d_31">
    <path d="M 507.066909 161.8916 
L 536.883633 162.002209 
L 559.561142 162.291834 
L 571.31985 162.633698 
L 575.099435 162.903533 
L 576.77925 163.219411 
L 577.619158 163.601354 
L 578.039112 163.863768 
L 578.459066 163.323426 
L 578.87902 161.672696 
L 579.298974 161.683435 
L 580.138881 162.150757 
L 581.398743 162.476496 
L 583.918466 162.789458 
L 590.637728 163.543466 
L 592.737497 163.96894 
L 594.417313 164.532306 
L 595.25722 164.974642 
L 596.097128 165.636616 
L 596.937036 166.744364 
L 597.35699 167.626998 
L 597.776944 168.906038 
L 598.196897 170.715796 
L 598.616851 171.799283 
L 599.456759 153.943051 
L 599.876713 155.161157 
L 600.296667 156.93796 
L 600.716621 158.192422 
L 601.556528 159.696109 
L 602.396436 160.552551 
L 603.656298 161.344556 
L 607.855836 163.369294 
L 608.27579 163.009337 
L 608.695744 161.18825 
L 609.115698 161.169173 
L 609.955606 161.807498 
L 611.215467 162.324548 
L 616.674868 164.042449 
L 617.094821 164.235387 
L 617.934729 165.106925 
L 618.354683 165.833811 
L 618.774637 166.803216 
L 619.194591 166.452285 
L 619.614545 160.224597 
L 620.034498 158.963237 
L 620.874406 160.708237 
L 621.714314 161.654601 
L 622.554222 162.155846 
L 624.653991 163.083509 
L 625.073945 163.040515 
L 625.913852 163.430847 
L 626.75376 163.964879 
L 627.593668 164.808034 
L 628.433576 166.332008 
L 628.85353 165.157811 
L 629.273483 159.867811 
L 629.693437 159.649114 
L 630.533345 161.106146 
L 631.373253 161.857722 
L 632.633114 162.470736 
L 634.31293 162.969531 
L 635.992745 163.314473 
L 641.032192 164.469138 
L 641.452145 164.636573 
L 642.292053 164.565314 
L 643.131961 165.09055 
L 643.551915 165.403807 
L 643.971869 165.534739 
L 644.391822 165.857765 
L 644.811776 165.802927 
L 645.23173 163.394839 
L 645.651684 163.038781 
L 646.491592 163.963909 
L 648.171407 165.069036 
L 649.431269 165.96625 
L 650.271177 166.816024 
L 651.111084 168.003216 
L 651.531038 165.83517 
L 651.950992 162.742478 
L 652.370946 163.261961 
L 653.210854 164.659456 
L 654.890669 166.538712 
L 655.310623 166.605246 
L 655.730577 166.896566 
L 656.570485 168.300858 
L 656.990438 169.274333 
L 657.410392 170.59911 
L 658.2503 174.477527 
L 658.670254 169.356016 
L 659.090208 156.670595 
L 659.510162 157.104657 
L 660.350069 160.865208 
L 661.189977 162.863157 
L 662.029885 164.163121 
L 663.7097 166.318334 
L 664.129654 166.415853 
L 664.549608 166.116225 
L 665.389516 167.241143 
L 666.649377 169.382987 
L 667.489285 171.482864 
L 667.909239 172.971573 
L 668.329193 174.946703 
L 668.749147 177.831901 
L 669.589054 185.359288 
L 670.428962 145.504563 
L 670.848916 148.527024 
L 671.688824 155.525629 
L 672.528731 159.376588 
L 673.368639 162.004476 
L 673.788593 163.008611 
L 674.208547 162.283911 
L 674.628501 161.820339 
L 676.72827 166.0346 
L 677.148224 166.003418 
L 677.568178 165.644914 
L 678.408085 167.465228 
L 679.247993 169.772552 
L 679.667947 171.282179 
L 680.087901 173.251405 
L 680.507855 175.955159 
L 681.347763 182.672592 
L 681.767716 175.986422 
L 682.18767 147.557848 
L 682.607624 146.330764 
L 683.447532 154.45697 
L 684.28744 158.953248 
L 685.127347 162.301941 
L 685.547301 163.391931 
L 685.967255 160.610323 
L 686.387209 159.595945 
L 687.227117 161.95292 
L 688.067024 161.745548 
L 689.326886 163.893325 
L 692.266563 168.051074 
L 693.106471 169.75666 
L 693.526425 170.917166 
L 693.946378 172.456903 
L 694.366332 174.514566 
L 694.786286 175.724646 
L 695.20624 166.632518 
L 695.626194 161.261832 
L 696.886055 166.772079 
L 697.725963 168.754351 
L 698.565871 171.618514 
L 699.405779 174.894548 
L 700.245686 167.90675 
L 701.085594 171.383538 
L 703.605317 181.842037 
L 704.445225 186.784778 
L 705.285133 194.028174 
L 705.705087 199.00806 
L 706.12504 205.447539 
L 706.544994 214.090508 
L 706.964948 226.182533 
L 707.384902 243.672135 
L 707.804856 267.385875 
L 708.22481 270.774079 
L 708.644764 127.252405 
L 709.064718 47.782574 
L 710.324579 105.120479 
L 710.744533 116.939427 
L 711.164487 122.74284 
L 711.584441 118.514205 
L 712.004395 122.260328 
L 712.844302 131.417228 
L 713.68421 137.44966 
L 714.524118 140.434052 
L 715.783979 145.460529 
L 716.623887 147.997237 
L 717.043841 148.687193 
L 718.303702 152.410493 
L 719.14361 155.706557 
L 719.563564 158.003323 
L 720.403472 163.767767 
L 721.24338 139.900324 
L 721.663333 142.059346 
L 722.503241 147.425076 
L 722.923195 149.181827 
L 723.343149 150.100094 
L 723.763103 150.463691 
L 725.442918 154.354163 
L 726.70278 157.107516 
L 727.542688 159.602757 
L 727.962641 161.253176 
L 728.382595 163.383396 
L 728.802549 166.201142 
L 729.222503 169.981067 
L 729.642457 175.04878 
L 730.062411 169.468968 
L 730.482365 137.241647 
L 730.902318 134.696536 
L 731.742226 144.181821 
L 733.002088 153.28061 
L 733.422042 154.863424 
L 733.841995 147.345459 
L 734.261949 142.15239 
L 734.681903 143.568007 
L 735.521811 147.016359 
L 736.361719 148.999074 
L 737.201626 150.332854 
L 738.881442 151.895213 
L 740.561257 153.194337 
L 742.661027 154.757201 
L 743.500934 155.669061 
L 743.920888 155.348129 
L 744.340842 153.491399 
L 744.760796 153.564012 
L 745.600704 154.414626 
L 746.860565 155.22672 
L 750.64015 157.114899 
L 751.060104 156.932336 
L 751.480058 157.027318 
L 753.579827 158.427966 
L 754.419735 159.179069 
L 755.259643 160.307476 
L 755.679596 161.002946 
L 756.09955 160.248551 
L 756.519504 158.277351 
L 756.939458 158.910455 
L 757.779366 160.753185 
L 758.19932 162.015555 
L 759.039227 165.651969 
L 759.459181 164.645181 
L 759.879135 154.061314 
L 760.299089 152.967636 
L 761.138997 157.316591 
L 761.55895 158.029052 
L 761.978904 157.736791 
L 762.398858 159.366449 
L 763.238766 164.345243 
L 763.65872 166.844028 
L 764.078674 157.978807 
L 764.498627 145.418963 
L 764.918581 147.071116 
L 765.758489 151.763199 
L 766.598397 154.63326 
L 767.438305 157.244838 
L 768.278212 160.674874 
L 768.698166 159.280757 
L 769.11812 151.619135 
L 769.538074 151.992555 
L 769.958028 154.265585 
L 770.377982 154.150961 
L 770.797935 149.37739 
L 771.217889 149.670953 
L 772.057797 151.999083 
L 772.897705 153.361392 
L 773.737613 154.289271 
L 775.417428 155.706222 
L 776.67729 156.812121 
L 777.517197 157.872447 
L 778.357105 159.49285 
L 778.777059 158.021885 
L 779.197013 154.697526 
L 779.616967 155.363707 
L 780.456874 157.514183 
L 780.876828 155.714535 
L 781.296782 154.410464 
L 782.13669 156.108266 
L 782.556644 154.743674 
L 782.976598 153.75731 
L 784.236459 155.499426 
L 785.496321 156.688035 
L 785.916275 157.162018 
L 786.336228 157.340811 
L 786.756182 156.042468 
L 787.176136 155.869171 
L 789.695859 158.546325 
L 790.115813 158.808688 
L 790.535767 157.098976 
L 790.955721 156.682121 
L 792.215582 158.700063 
L 793.05549 160.658484 
L 793.475444 160.959255 
L 793.895398 155.399764 
L 794.315352 153.156185 
L 795.15526 155.07224 
L 795.995167 156.251577 
L 797.255029 157.334995 
L 800.61466 159.818461 
L 801.454567 160.735551 
L 802.294475 162.031252 
L 802.714429 162.935728 
L 803.134383 164.134918 
L 803.554337 165.801988 
L 804.394245 170.454974 
L 804.814198 162.85437 
L 805.234152 150.219923 
L 805.654106 151.69662 
L 807.753875 166.935045 
L 808.173829 163.321421 
L 808.593783 143.105025 
L 809.013737 141.338276 
L 809.853645 147.095404 
L 810.693553 150.186353 
L 811.53346 152.127839 
L 811.953414 152.940142 
L 812.373368 153.213506 
L 812.793322 152.041736 
L 813.213276 152.191344 
L 814.053183 153.164669 
L 814.893091 153.817808 
L 816.152953 154.499701 
L 817.832768 155.150334 
L 820.352491 155.876567 
L 825.391938 157.199014 
L 826.231845 157.58474 
L 826.651799 157.525912 
L 827.071753 156.813239 
L 827.491707 156.845181 
L 828.751569 157.425403 
L 831.271292 158.49518 
L 832.1112 159.073032 
L 832.951107 159.998339 
L 833.371061 160.142141 
L 833.791015 159.015871 
L 834.210969 159.466857 
L 835.050877 161.585716 
L 835.890784 154.00411 
L 837.150646 156.493793 
L 837.5706 157.179738 
L 837.990554 157.590841 
L 838.410507 158.257041 
L 838.830461 158.422491 
L 839.250415 156.954453 
L 839.670369 157.405273 
L 840.090323 158.510889 
L 840.510277 159.223706 
L 840.930231 155.861202 
L 841.350185 153.7856 
L 842.190092 155.448553 
L 842.610046 155.846403 
L 843.03 155.676211 
L 843.449954 156.000741 
L 843.449954 156.000741 
" clip-path="url(#p6cca2cbacf)" style="fill: none; stroke-dasharray: 2,3.3; stroke-dashoffset: 0; stroke: #2ca02c; stroke-width: 2"/>
   </g>
   <g id="patch_9">
    <path d="M 507.066909 287.8 
L 507.066909 31.92 
" style="fill: none; stroke: #000000; stroke-width: 0.8; stroke-linejoin: miter; stroke-linecap: square"/>
   </g>
   <g id="patch_10">
    <path d="M 843.03 287.8 
L 843.03 31.92 
" style="fill: none; stroke: #000000; stroke-width: 0.8; stroke-linejoin: miter; stroke-linecap: square"/>
   </g>
   <g id="patch_11">
    <path d="M 507.066909 287.8 
L 843.03 287.8 
" style="fill: none; stroke: #000000; stroke-width: 0.8; stroke-linejoin: miter; stroke-linecap: square"/>
   </g>
   <g id="patch_12">
    <path d="M 507.066909 31.92 
L 843.03 31.92 
" style="fill: none; stroke: #000000; stroke-width: 0.8; stroke-linejoin: miter; stroke-linecap: square"/>
   </g>
   <g id="text_30">
    <!-- Screened Coulomb Interaction $W$ -->
    <g transform="translate(508.998455 25.92) scale(0.18 -0.18)">
     <defs>
      <path id="DejaVuSans-Bold-63" d="M 3366 3391 
L 3366 2478 
Q 3138 2634 2908 2709 
Q 2678 2784 2431 2784 
Q 1963 2784 1702 2511 
Q 1441 2238 1441 1747 
Q 1441 1256 1702 982 
Q 1963 709 2431 709 
Q 2694 709 2930 787 
Q 3166 866 3366 1019 
L 3366 103 
Q 3103 6 2833 -42 
Q 2563 -91 2291 -91 
Q 1344 -91 809 395 
Q 275 881 275 1747 
Q 275 2613 809 3098 
Q 1344 3584 2291 3584 
Q 2566 3584 2833 3536 
Q 3100 3488 3366 3391 
z
" transform="scale(0.015625)"/>
      <path id="DejaVuSans-Bold-64" d="M 2919 2988 
L 2919 4863 
L 4044 4863 
L 4044 0 
L 2919 0 
L 2919 506 
Q 2688 197 2409 53 
Q 2131 -91 1766 -91 
Q 1119 -91 703 423 
Q 288 938 288 1747 
Q 288 2556 703 3070 
Q 1119 3584 1766 3584 
Q 2128 3584 2408 3439 
Q 2688 3294 2919 2988 
z
M 2181 722 
Q 2541 722 2730 984 
Q 2919 1247 2919 1747 
Q 2919 2247 2730 2509 
Q 2541 2772 2181 2772 
Q 1825 2772 1636 2509 
Q 1447 2247 1447 1747 
Q 1447 1247 1636 984 
Q 1825 722 2181 722 
z
" transform="scale(0.015625)"/>
      <path id="DejaVuSans-Bold-43" d="M 4288 256 
Q 3956 84 3597 -3 
Q 3238 -91 2847 -91 
Q 1681 -91 1000 561 
Q 319 1213 319 2328 
Q 319 3447 1000 4098 
Q 1681 4750 2847 4750 
Q 3238 4750 3597 4662 
Q 3956 4575 4288 4403 
L 4288 3438 
Q 3953 3666 3628 3772 
Q 3303 3878 2944 3878 
Q 2300 3878 1931 3465 
Q 1563 3053 1563 2328 
Q 1563 1606 1931 1193 
Q 2300 781 2944 781 
Q 3303 781 3628 887 
Q 3953 994 4288 1222 
L 4288 256 
z
" transform="scale(0.015625)"/>
      <path id="DejaVuSans-Bold-6f" d="M 2203 2784 
Q 1831 2784 1636 2517 
Q 1441 2250 1441 1747 
Q 1441 1244 1636 976 
Q 1831 709 2203 709 
Q 2569 709 2762 976 
Q 2956 1244 2956 1747 
Q 2956 2250 2762 2517 
Q 2569 2784 2203 2784 
z
M 2203 3584 
Q 3106 3584 3614 3096 
Q 4122 2609 4122 1747 
Q 4122 884 3614 396 
Q 3106 -91 2203 -91 
Q 1297 -91 786 396 
Q 275 884 275 1747 
Q 275 2609 786 3096 
Q 1297 3584 2203 3584 
z
" transform="scale(0.015625)"/>
      <path id="DejaVuSans-Bold-75" d="M 500 1363 
L 500 3500 
L 1625 3500 
L 1625 3150 
Q 1625 2866 1622 2436 
Q 1619 2006 1619 1863 
Q 1619 1441 1641 1255 
Q 1663 1069 1716 984 
Q 1784 875 1895 815 
Q 2006 756 2150 756 
Q 2500 756 2700 1025 
Q 2900 1294 2900 1772 
L 2900 3500 
L 4019 3500 
L 4019 0 
L 2900 0 
L 2900 506 
Q 2647 200 2364 54 
Q 2081 -91 1741 -91 
Q 1134 -91 817 281 
Q 500 653 500 1363 
z
" transform="scale(0.015625)"/>
      <path id="DejaVuSans-Bold-6d" d="M 3781 2919 
Q 3994 3244 4286 3414 
Q 4578 3584 4928 3584 
Q 5531 3584 5847 3212 
Q 6163 2841 6163 2131 
L 6163 0 
L 5038 0 
L 5038 1825 
Q 5041 1866 5042 1909 
Q 5044 1953 5044 2034 
Q 5044 2406 4934 2573 
Q 4825 2741 4581 2741 
Q 4263 2741 4089 2478 
Q 3916 2216 3909 1719 
L 3909 0 
L 2784 0 
L 2784 1825 
Q 2784 2406 2684 2573 
Q 2584 2741 2328 2741 
Q 2006 2741 1831 2477 
Q 1656 2213 1656 1722 
L 1656 0 
L 531 0 
L 531 3500 
L 1656 3500 
L 1656 2988 
Q 1863 3284 2130 3434 
Q 2397 3584 2719 3584 
Q 3081 3584 3359 3409 
Q 3638 3234 3781 2919 
z
" transform="scale(0.015625)"/>
      <path id="DejaVuSans-Bold-62" d="M 2400 722 
Q 2759 722 2948 984 
Q 3138 1247 3138 1747 
Q 3138 2247 2948 2509 
Q 2759 2772 2400 2772 
Q 2041 2772 1848 2508 
Q 1656 2244 1656 1747 
Q 1656 1250 1848 986 
Q 2041 722 2400 722 
z
M 1656 2988 
Q 1888 3294 2169 3439 
Q 2450 3584 2816 3584 
Q 3463 3584 3878 3070 
Q 4294 2556 4294 1747 
Q 4294 938 3878 423 
Q 3463 -91 2816 -91 
Q 2450 -91 2169 54 
Q 1888 200 1656 506 
L 1656 0 
L 538 0 
L 538 4863 
L 1656 4863 
L 1656 2988 
z
" transform="scale(0.015625)"/>
      <path id="DejaVuSans-Bold-49" d="M 588 4666 
L 1791 4666 
L 1791 0 
L 588 0 
L 588 4666 
z
" transform="scale(0.015625)"/>
      <path id="DejaVuSans-Bold-74" d="M 1759 4494 
L 1759 3500 
L 2913 3500 
L 2913 2700 
L 1759 2700 
L 1759 1216 
Q 1759 972 1856 886 
Q 1953 800 2241 800 
L 2816 800 
L 2816 0 
L 1856 0 
Q 1194 0 917 276 
Q 641 553 641 1216 
L 641 2700 
L 84 2700 
L 84 3500 
L 641 3500 
L 641 4494 
L 1759 4494 
z
" transform="scale(0.015625)"/>
      <path id="DejaVuSans-Bold-61" d="M 2106 1575 
Q 1756 1575 1579 1456 
Q 1403 1338 1403 1106 
Q 1403 894 1545 773 
Q 1688 653 1941 653 
Q 2256 653 2472 879 
Q 2688 1106 2688 1447 
L 2688 1575 
L 2106 1575 
z
M 3816 1997 
L 3816 0 
L 2688 0 
L 2688 519 
Q 2463 200 2181 54 
Q 1900 -91 1497 -91 
Q 953 -91 614 226 
Q 275 544 275 1050 
Q 275 1666 698 1953 
Q 1122 2241 2028 2241 
L 2688 2241 
L 2688 2328 
Q 2688 2594 2478 2717 
Q 2269 2841 1825 2841 
Q 1466 2841 1156 2769 
Q 847 2697 581 2553 
L 581 3406 
Q 941 3494 1303 3539 
Q 1666 3584 2028 3584 
Q 2975 3584 3395 3211 
Q 3816 2838 3816 1997 
z
" transform="scale(0.015625)"/>
      <path id="DejaVuSans-Bold-69" d="M 538 3500 
L 1656 3500 
L 1656 0 
L 538 0 
L 538 3500 
z
M 538 4863 
L 1656 4863 
L 1656 3950 
L 538 3950 
L 538 4863 
z
" transform="scale(0.015625)"/>
     </defs>
     <use xlink:href="#DejaVuSans-Bold-53" transform="translate(0 0.015625)"/>
     <use xlink:href="#DejaVuSans-Bold-63" transform="translate(72.021484 0.015625)"/>
     <use xlink:href="#DejaVuSans-Bold-72" transform="translate(131.298828 0.015625)"/>
     <use xlink:href="#DejaVuSans-Bold-65" transform="translate(180.615234 0.015625)"/>
     <use xlink:href="#DejaVuSans-Bold-65" transform="translate(248.4375 0.015625)"/>
     <use xlink:href="#DejaVuSans-Bold-6e" transform="translate(316.259766 0.015625)"/>
     <use xlink:href="#DejaVuSans-Bold-65" transform="translate(387.451172 0.015625)"/>
     <use xlink:href="#DejaVuSans-Bold-64" transform="translate(455.273438 0.015625)"/>
     <use xlink:href="#DejaVuSans-Bold-20" transform="translate(526.855469 0.015625)"/>
     <use xlink:href="#DejaVuSans-Bold-43" transform="translate(561.669922 0.015625)"/>
     <use xlink:href="#DejaVuSans-Bold-6f" transform="translate(635.058594 0.015625)"/>
     <use xlink:href="#DejaVuSans-Bold-75" transform="translate(703.759766 0.015625)"/>
     <use xlink:href="#DejaVuSans-Bold-6c" transform="translate(774.951172 0.015625)"/>
     <use xlink:href="#DejaVuSans-Bold-6f" transform="translate(809.228516 0.015625)"/>
     <use xlink:href="#DejaVuSans-Bold-6d" transform="translate(877.929688 0.015625)"/>
     <use xlink:href="#DejaVuSans-Bold-62" transform="translate(982.128906 0.015625)"/>
     <use xlink:href="#DejaVuSans-Bold-20" transform="translate(1053.710938 0.015625)"/>
     <use xlink:href="#DejaVuSans-Bold-49" transform="translate(1088.525391 0.015625)"/>
     <use xlink:href="#DejaVuSans-Bold-6e" transform="translate(1125.732422 0.015625)"/>
     <use xlink:href="#DejaVuSans-Bold-74" transform="translate(1196.923828 0.015625)"/>
     <use xlink:href="#DejaVuSans-Bold-65" transform="translate(1244.726562 0.015625)"/>
     <use xlink:href="#DejaVuSans-Bold-72" transform="translate(1312.548828 0.015625)"/>
     <use xlink:href="#DejaVuSans-Bold-61" transform="translate(1361.865234 0.015625)"/>
     <use xlink:href="#DejaVuSans-Bold-63" transform="translate(1429.345703 0.015625)"/>
     <use xlink:href="#DejaVuSans-Bold-74" transform="translate(1488.623047 0.015625)"/>
     <use xlink:href="#DejaVuSans-Bold-69" transform="translate(1536.425781 0.015625)"/>
     <use xlink:href="#DejaVuSans-Bold-6f" transform="translate(1570.703125 0.015625)"/>
     <use xlink:href="#DejaVuSans-Bold-6e" transform="translate(1639.404297 0.015625)"/>
     <use xlink:href="#DejaVuSans-Bold-20" transform="translate(1710.595703 0.015625)"/>
     <use xlink:href="#DejaVuSans-Oblique-57" transform="translate(1745.410156 0.015625)"/>
    </g>
   </g>
   <g id="legend_2">
    <g id="patch_13">
     <path d="M 516.866909 104.768125 
L 645.585972 104.768125 
Q 648.385972 104.768125 648.385972 101.968125 
L 648.385972 41.72 
Q 648.385972 38.92 645.585972 38.92 
L 516.866909 38.92 
Q 514.066909 38.92 514.066909 41.72 
L 514.066909 101.968125 
Q 514.066909 104.768125 516.866909 104.768125 
z
" style="fill: #ffffff; opacity: 0.8; stroke: #cccccc; stroke-linejoin: miter"/>
    </g>
    <g id="line2d_32">
     <path d="M 519.666909 50.257812 
L 533.666909 50.257812 
L 547.666909 50.257812 
" style="fill: none; stroke: #000000; stroke-width: 3; stroke-linecap: square"/>
    </g>
    <g id="text_31">
     <!-- CD -->
     <g transform="translate(558.866909 55.157812) scale(0.14 -0.14)">
      <use xlink:href="#DejaVuSans-43"/>
      <use xlink:href="#DejaVuSans-44" x="69.824219"/>
     </g>
    </g>
    <g id="line2d_33">
     <path d="M 519.666909 70.807187 
L 533.666909 70.807187 
L 547.666909 70.807187 
" style="fill: none; stroke: #1f77b4; stroke-width: 2; stroke-linecap: square"/>
    </g>
    <g id="text_32">
     <!-- AC (64 bit) -->
     <g transform="translate(558.866909 75.707187) scale(0.14 -0.14)">
      <use xlink:href="#DejaVuSans-41"/>
      <use xlink:href="#DejaVuSans-43" x="66.658203"/>
      <use xlink:href="#DejaVuSans-20" x="136.482422"/>
      <use xlink:href="#DejaVuSans-28" x="168.269531"/>
      <use xlink:href="#DejaVuSans-36" x="207.283203"/>
      <use xlink:href="#DejaVuSans-34" x="270.90625"/>
      <use xlink:href="#DejaVuSans-20" x="334.529297"/>
      <use xlink:href="#DejaVuSans-62" x="366.316406"/>
      <use xlink:href="#DejaVuSans-69" x="429.792969"/>
      <use xlink:href="#DejaVuSans-74" x="457.576172"/>
      <use xlink:href="#DejaVuSans-29" x="496.785156"/>
     </g>
    </g>
    <g id="line2d_34">
     <path d="M 519.666909 91.356562 
L 533.666909 91.356562 
L 547.666909 91.356562 
" style="fill: none; stroke-dasharray: 2,3.3; stroke-dashoffset: 0; stroke: #2ca02c; stroke-width: 2"/>
    </g>
    <g id="text_33">
     <!-- AC (128 bit) -->
     <g transform="translate(558.866909 96.256562) scale(0.14 -0.14)">
      <use xlink:href="#DejaVuSans-41"/>
      <use xlink:href="#DejaVuSans-43" x="66.658203"/>
      <use xlink:href="#DejaVuSans-20" x="136.482422"/>
      <use xlink:href="#DejaVuSans-28" x="168.269531"/>
      <use xlink:href="#DejaVuSans-31" x="207.283203"/>
      <use xlink:href="#DejaVuSans-32" x="270.90625"/>
      <use xlink:href="#DejaVuSans-38" x="334.529297"/>
      <use xlink:href="#DejaVuSans-20" x="398.152344"/>
      <use xlink:href="#DejaVuSans-62" x="429.939453"/>
      <use xlink:href="#DejaVuSans-69" x="493.416016"/>
      <use xlink:href="#DejaVuSans-74" x="521.199219"/>
      <use xlink:href="#DejaVuSans-29" x="560.408203"/>
     </g>
    </g>
   </g>
  </g>
 </g>
 <defs>
  <clipPath id="p780fc6b725">
   <rect x="76.214" y="31.92" width="335.963091" height="255.88"/>
  </clipPath>
  <clipPath id="p6cca2cbacf">
   <rect x="507.066909" y="31.92" width="335.963091" height="255.88"/>
  </clipPath>
 </defs>
</svg>
